<svg width="79" height="53" viewBox="0 0 79 53" fill="none" xmlns="http://www.w3.org/2000/svg">
<path fill-rule="evenodd" clip-rule="evenodd" d="M62.4305 19.3536C62.8413 19.3536 63.0322 19.4729 63.0006 19.7114C62.969 19.9512 62.9532 20.2626 62.9532 20.6442C62.9532 20.7091 62.9453 20.8124 62.9295 20.9555C62.9137 21.0986 62.8742 21.2974 62.8097 21.5518C62.7465 21.8075 62.6688 22.1586 62.574 22.6052C62.4779 23.0517 62.3357 23.6082 62.1461 24.2786C61.5431 26.7325 60.894 28.9002 60.1975 30.7804C59.8485 31.7066 59.5088 32.495 59.1757 33.1469C58.8426 33.8014 58.5187 34.3513 58.2027 34.7978C57.3469 36.0089 56.2698 36.6144 54.9703 36.6144C53.5141 36.6144 52.2632 35.8499 51.2178 34.3195C50.2672 32.8845 49.7918 31.1474 49.7918 29.1083C49.7918 27.4507 49.9103 25.7772 50.1487 24.0878C50.3857 22.3971 50.6951 20.884 51.0756 19.5444C51.2007 19.0674 51.3521 18.5732 51.5259 18.0617C51.6997 17.5529 51.9143 17.0826 52.1684 16.6519C52.4212 16.2213 52.7056 15.8715 53.0229 15.6012C53.3389 15.3296 53.7195 15.1931 54.1632 15.1931C55.0493 15.1931 55.8735 15.5283 56.6346 16.1988C56.9822 16.5486 57.2666 16.9792 57.4891 17.488C57.7103 17.9981 57.8209 18.446 57.8209 18.8276C57.8209 19.4649 57.759 20.1658 57.6339 20.9304C57.5075 21.6962 57.3508 22.4541 57.1625 23.2027C56.9743 23.9514 56.7623 24.6364 56.5266 25.2578C56.2922 25.8792 56.0486 26.3814 55.7972 26.7657C55.6405 27.0519 55.4206 27.3381 55.1388 27.6256C54.8557 27.9118 54.5661 28.1437 54.2672 28.3186C53.9683 28.4948 53.6865 28.5902 53.4206 28.6061C53.1533 28.622 52.9255 28.5027 52.7372 28.247C52.674 28.5027 52.6582 28.838 52.6911 29.25C52.7214 29.6648 52.7688 30.0715 52.8333 30.4704C52.8965 30.8692 52.9755 31.2428 53.0703 31.594C53.1651 31.9451 53.2441 32.1995 53.3087 32.3585C53.5549 32.9017 53.8788 33.3072 54.279 33.5775C54.6806 33.8491 54.9598 33.9843 55.1138 33.9843C55.4298 33.9843 55.7577 33.7034 56.1698 33.3178C56.682 32.8395 57.4483 31.6112 57.8354 30.6108C58.4371 29.0526 58.3436 29.3786 59.0098 27.8164C59.6747 26.2555 60.2765 24.5807 60.815 22.796C60.9098 22.4462 60.9967 22.103 61.077 21.7678C61.1547 21.4339 61.2429 21.0907 61.3377 20.7396C61.4957 19.816 61.8604 19.3536 62.4305 19.3536ZM54.9703 18.3493C54.7228 19.0502 54.4989 19.6809 54.2988 20.2374C54.0973 20.7965 53.9051 21.3371 53.7181 21.8632C53.5325 22.3892 53.3784 22.9232 53.2547 23.4664C53.1309 24.0083 53.0532 24.6139 53.0229 25.283C53.4258 25.2512 53.7748 24.965 54.0697 24.4217C54.3633 23.8798 54.5582 23.3869 54.6517 22.9391C54.7754 22.3017 54.9071 21.6578 55.0467 21.0032C55.1862 20.35 55.256 19.6729 55.256 18.972C55.256 18.8117 55.2323 18.6116 55.1849 18.3731C55.1375 18.1346 55.0664 18.1267 54.9703 18.3493Z" fill="#1F2548"/>
<path fill-rule="evenodd" clip-rule="evenodd" d="M57.7557 30.8013C58.5167 29.0272 59.7373 25.4735 59.8321 25.0919C59.9282 24.709 60.0704 24.183 60.26 23.5125C60.6708 21.9517 60.8788 20.6929 60.8788 19.7363C60.8788 19.6727 60.8604 19.5203 60.8301 19.2818C60.7985 19.0433 60.7037 18.7014 60.5457 18.2549C60.2284 17.4891 60.0704 16.804 60.0704 16.1985C60.0704 15.5281 60.1336 14.9875 60.26 14.5727C60.3864 14.158 60.5457 13.8307 60.7353 13.5922C60.9249 13.3524 61.1395 13.1855 61.3765 13.0901C61.6149 12.9947 61.844 12.9456 62.0652 12.9456C62.1916 12.9456 62.3509 12.9695 62.5405 13.0185C62.7314 13.0662 62.9131 13.1696 63.0869 13.3299C63.2607 13.4889 63.42 13.7194 63.5622 14.0229C63.7044 14.325 63.7913 14.7158 63.8242 15.1928C63.8545 15.5135 63.8242 16.07 63.7281 16.8676C63.6649 17.3142 63.6333 17.6481 63.6333 17.8707V18.3967C63.6649 18.4616 63.7913 18.5729 64.0138 18.7319C64.235 18.8922 64.6945 19.1466 65.3911 19.4964C67.1014 20.3259 67.9572 21.3938 67.9572 22.7003C67.9572 22.7652 67.9493 22.8845 67.9335 23.0594C67.9177 23.2343 67.9019 23.4979 67.8861 23.8477C67.869 24.1989 67.8295 24.6772 67.7676 25.2827C67.7031 25.8882 67.6241 26.6687 67.5293 27.6253C67.4661 28.2958 67.4108 28.8523 67.3634 29.2988C67.316 29.7453 67.2752 30.1123 67.2449 30.3985C67.212 30.6847 67.1883 30.9246 67.1738 31.1154C67.1567 31.3062 67.1501 31.4983 67.1501 31.6891C67.1501 32.4549 67.2278 32.9319 67.3871 33.1227C67.5451 33.3162 67.7031 33.4116 67.8624 33.4116C67.8927 33.3785 67.9651 33.291 68.0757 33.1479C68.1863 33.0048 68.3285 32.7491 68.5037 32.3834C68.6775 32.0164 68.8842 31.5221 69.1212 30.9007C69.3582 30.2793 69.6518 29.4737 70.0007 28.4866C71.0764 25.3622 71.7413 22.956 71.9955 21.2653C72.0903 20.5339 72.2812 20.0543 72.5656 19.8317C72.8513 19.6091 73.1199 19.4964 73.374 19.4964C73.4991 19.4964 73.7137 19.5693 74.0152 19.7111C74.3154 19.8555 74.4668 20.2623 74.4668 20.9314C74.4668 22.0471 73.8019 24.709 72.4708 28.9172C71.9323 30.5098 71.4569 31.7845 71.0461 32.7411C70.634 33.6978 70.2614 34.4305 69.9296 34.9406C69.5965 35.4508 69.295 35.786 69.0264 35.945C68.7565 36.1053 68.5102 36.1848 68.2904 36.1848C66.9908 36.1848 65.9296 35.4508 65.1067 33.984C64.9789 33.825 64.8604 33.507 64.7498 33.0273C64.6379 32.5503 64.551 31.7209 64.4891 30.543V26.8608V22.748C64.4891 22.6857 64.4246 22.5333 64.2982 22.2935C64.1718 22.055 63.8242 21.745 63.2528 21.3607C63.0632 22.3823 61.4068 27.624 60.6168 29.5969" fill="#1F2548"/>
<path fill-rule="evenodd" clip-rule="evenodd" d="M78.9999 33.8405C78.9999 34.0406 78.9196 34.3096 78.7629 34.6474C78.6036 34.9866 78.3955 35.3152 78.1388 35.6346C77.8807 35.9526 77.5937 36.2229 77.2777 36.4415C76.9604 36.6601 76.6444 36.7688 76.327 36.7688C76.0492 36.7688 75.803 36.6892 75.5844 36.5316C75.3672 36.3726 75.2579 36.1328 75.2579 35.8134C75.2579 35.0171 75.5252 34.3188 76.0598 33.7226C76.5943 33.1237 77.1987 32.8256 77.8715 32.8256C78.069 32.8256 78.306 32.8958 78.5851 33.0349C78.8603 33.174 78.9999 33.443 78.9999 33.8405Z" fill="#1F2548"/>
<path fill-rule="evenodd" clip-rule="evenodd" d="M12.8284 9.80195C13.2721 9.86688 13.4933 10.1054 13.4933 10.5188V10.854C13.4933 11.013 13.4459 11.1574 13.3511 11.2846C13.2563 11.4118 13.0496 11.539 12.7336 11.6676C12.4163 11.7948 11.704 11.9538 10.5953 12.1446C9.86591 12.3049 9.26551 12.4003 8.79019 12.4308C8.31487 12.4639 7.90276 12.4798 7.55384 12.4798L6.08181 12.5752C6.01729 13.0217 5.94619 13.7306 5.86851 14.7031C5.78819 15.6757 5.66969 16.8788 5.51169 18.3124C5.38397 19.5248 5.28917 20.5119 5.22597 21.2778C5.16146 22.0423 5.10747 22.6478 5.06007 23.0944C5.01267 23.5409 4.97976 23.8589 4.96527 24.051C4.94816 24.2418 4.94157 24.369 4.94157 24.4326C4.94157 25.963 4.94816 27.1992 4.96527 28.1386C4.97976 29.0794 5.00477 29.7247 5.03637 30.0745C5.13117 31.096 5.26547 31.7652 5.44059 32.0832C5.61439 32.4025 5.73289 32.5615 5.79609 32.5615C5.92249 32.4979 6.05021 32.3866 6.17661 32.2263C6.30301 32.0673 6.45311 31.8433 6.62822 31.5571C6.80202 31.2709 7.01532 30.8562 7.26944 30.3143C7.61704 29.453 7.98966 28.3626 8.38597 27.0389C8.78229 25.7165 9.18519 24.1782 9.59731 22.4239C9.69211 22.0105 9.78691 21.6594 9.88302 21.3732C9.97782 21.0857 10.0555 20.8313 10.12 20.6073C10.1832 20.4483 10.2859 20.2416 10.4294 19.9859C10.5716 19.7315 10.8007 19.603 11.1181 19.603C11.4025 19.603 11.6724 19.7077 11.9252 19.9144C12.1793 20.1224 12.3057 20.496 12.3057 21.038C12.3057 21.6435 12.1635 22.5604 11.8778 23.7873C11.5934 25.0143 11.1339 26.5844 10.5005 28.4977C9.67631 30.9516 8.87709 32.7602 8.10157 33.9236C7.32474 35.0883 6.50972 35.6686 5.65389 35.6686C4.44914 35.6686 3.48402 34.7451 2.75591 32.8954C2.12127 31.2391 1.80527 29.1827 1.80527 26.7275C1.80527 25.9312 1.90797 24.4021 2.11469 22.1377C2.32009 19.8746 2.64399 16.7185 3.08771 12.6706C2.80331 12.7342 2.53339 12.7262 2.28059 12.6467C2.02647 12.5672 1.85267 12.4957 1.75787 12.4308C1.69467 12.4003 1.61567 12.3354 1.51956 12.24C1.42476 12.1446 1.25227 12.0492 0.998155 11.9538C0.554439 11.7948 0.277939 11.5947 0.166022 11.3562C0.0554221 11.1164 0.00012207 10.9176 0.00012207 10.7586C0.00012207 10.6619 0.0554221 10.4949 0.166022 10.2564C0.277939 10.0166 0.649239 9.83375 1.28256 9.70655C1.47216 9.67475 1.63147 9.6509 1.75787 9.635C1.88427 9.6191 2.01067 9.6032 2.13839 9.5873C2.26479 9.57008 2.41489 9.5555 2.58869 9.5396C2.76381 9.5237 2.99291 9.49985 3.27862 9.46673C3.30891 9.11693 3.34182 8.6863 3.37342 8.17618C3.40502 7.66605 3.43662 7.07643 3.46822 6.4073L3.23122 5.59375C3.23122 5.40295 3.24702 5.25985 3.27862 5.16313C3.53142 4.65433 3.92774 4.39993 4.46626 4.39993C5.03637 4.39993 5.84349 4.73383 6.88892 5.40295C7.07984 5.56328 7.17464 5.75408 7.17464 5.97668V7.07643V7.21953C7.11012 7.57065 7.03902 7.92973 6.96002 8.29543C6.88102 8.66245 6.79412 9.06923 6.69932 9.51575H7.10354C7.15094 9.51575 7.19044 9.5237 7.22204 9.5396C7.25364 9.5555 7.33264 9.57008 7.45904 9.5873C7.58544 9.6032 7.87116 9.61115 8.31487 9.61115C8.72567 9.61115 9.05089 9.6191 9.28789 9.635C9.52621 9.6509 9.77901 9.6668 10.0489 9.6827C10.3175 9.6986 10.6585 9.7145 11.0707 9.7304C11.4815 9.7463 12.0687 9.77148 12.8284 9.80195Z" fill="#1F2548"/>
<path fill-rule="evenodd" clip-rule="evenodd" d="M21.0474 19.4601C21.4596 19.4601 21.6492 19.5794 21.6189 19.8192C21.586 20.0577 21.5702 20.3678 21.5702 20.7507C21.5702 20.8156 21.5623 20.919 21.5465 21.0621C21.5307 21.2052 21.4912 21.4052 21.428 21.6596C21.3648 21.9154 21.2858 22.2652 21.191 22.7117C21.0948 23.1582 20.9526 23.716 20.763 24.3852C20.1613 26.8404 19.5109 29.0068 18.8144 30.8883C18.4655 31.8131 18.1258 32.6015 17.7926 33.2547C17.4608 33.9079 17.1356 34.4578 16.8196 34.9043C15.9638 36.1154 14.8868 36.7209 13.5885 36.7209C12.131 36.7209 10.8801 35.9564 9.8347 34.426C8.88407 32.991 8.40875 31.254 8.40875 29.2148C8.40875 27.5572 8.52725 25.8837 8.76557 24.1944C9.00389 22.505 9.31199 20.9905 9.6925 19.6509C9.81759 19.1739 9.969 18.6797 10.1441 18.1696C10.3166 17.6595 10.5312 17.1891 10.7853 16.7585C11.0381 16.3278 11.3239 15.978 11.6399 15.7077C11.9559 15.4361 12.3364 15.2996 12.7801 15.2996C13.6675 15.2996 14.4918 15.6349 15.2515 16.304C15.6004 16.6551 15.8848 17.0857 16.106 17.5959C16.3272 18.106 16.4391 18.5512 16.4391 18.9341C16.4391 19.5728 16.3759 20.2724 16.2508 21.0382C16.1244 21.8027 15.9677 22.5606 15.7795 23.3093C15.5912 24.0592 15.3792 24.7442 15.1448 25.3657C14.9091 25.9871 14.6656 26.4893 14.4141 26.8722C14.2574 27.1584 14.0375 27.4446 13.7557 27.7321C13.4727 28.0183 13.183 28.2502 12.8841 28.4251C12.5865 28.6013 12.3035 28.6967 12.0375 28.7126C11.7702 28.7285 11.5437 28.6093 11.3555 28.3535C11.2909 28.6093 11.2751 28.9445 11.3081 29.3579C11.3383 29.7726 11.3871 30.1781 11.4503 30.5769C11.5135 30.9757 11.5925 31.3507 11.6873 31.7005C11.7821 32.0516 11.8611 32.306 11.9256 32.465C12.1718 33.0083 12.4957 33.415 12.8973 33.684C13.2975 33.9556 13.5767 34.0921 13.7307 34.0921C14.048 34.0921 14.3561 33.8523 14.6577 33.374C14.9579 32.8956 15.3463 32.2914 15.8216 31.5574C16.3588 30.6961 16.9618 29.4851 17.6267 27.9229C18.2917 26.3621 18.8934 24.6886 19.4319 22.9025C19.5267 22.5527 19.6136 22.2095 19.6939 21.8743C19.7729 21.5404 19.8598 21.1985 19.9546 20.8474C20.1126 19.9226 20.4773 19.4601 21.0474 19.4601ZM13.5885 18.4558C13.341 19.158 13.1158 19.7874 12.9157 20.3452C12.7143 20.9031 12.5207 21.4437 12.3364 21.9697C12.1494 22.497 11.9954 23.031 11.8716 23.5729C11.7478 24.1149 11.6701 24.7204 11.6399 25.3895C12.0428 25.3577 12.3917 25.0715 12.6866 24.5283C12.9815 23.9863 13.1751 23.4934 13.2686 23.0456C13.3923 22.4096 13.524 21.7643 13.6636 21.1098C13.8031 20.4565 13.8729 19.7795 13.8729 19.0785C13.8729 18.9182 13.8492 18.7195 13.8018 18.4796C13.7544 18.2411 13.6833 18.2332 13.5885 18.4558Z" fill="#1F2548"/>
<path fill-rule="evenodd" clip-rule="evenodd" d="M34.8266 19.4601C34.953 19.4601 35.0083 19.5396 34.9925 19.7C34.9767 19.859 34.9688 20.2724 34.9688 20.9428C34.9688 22.1221 34.2868 24.784 32.9254 28.9273C32.3868 30.5212 31.9115 31.7959 31.5007 32.7525C31.0886 33.7092 30.716 34.434 30.3842 34.9282C30.0511 35.4224 29.7496 35.7497 29.481 35.9087C29.2124 36.0677 28.9661 36.1472 28.7449 36.1472C27.1926 36.1472 26.1472 35.0156 25.6086 32.7525C25.0385 33.9954 24.5632 34.8566 24.1827 35.3336C23.5494 36.2598 22.8055 36.7209 21.9496 36.7209C21.5704 36.7209 21.1188 36.6017 20.5961 36.3618C20.0734 36.1233 19.5902 35.6212 19.1478 34.8566C18.4815 33.7728 18.1497 32.3696 18.1497 30.6484C18.1497 29.2466 18.259 27.8355 18.4815 26.4164C18.704 24.9986 19.0832 23.3967 19.6218 21.6119C20.8884 17.4369 22.4091 15.3487 24.1827 15.3487C24.8173 15.3487 25.4809 15.6508 26.1788 16.2563C26.242 16.2894 26.2815 16.3212 26.2973 16.353C26.3131 16.3848 26.3526 16.4166 26.4171 16.4484C26.6067 14.8226 26.8516 12.7901 27.1531 10.3521C27.4533 7.91277 27.8101 5.21242 28.2222 2.24839C28.1906 1.99267 28.1985 1.60974 28.2459 1.09962C28.2933 0.589492 28.5382 0.238366 28.9819 0.0475665L29.1255 -0.000133514H30.217C30.6291 -0.000133514 30.9372 0.0886415 31.1439 0.263541C31.3506 0.438441 31.5323 0.668992 31.6903 0.956517C31.9115 1.30764 31.9905 1.84957 31.9273 2.58229L31.8812 2.62999C31.5955 4.12857 31.3019 5.65099 31.0017 7.19594C30.7002 8.74222 30.375 10.4236 30.0274 12.2402C29.9958 12.4959 29.876 13.4115 29.6719 14.9896C29.4652 16.5677 29.1715 18.8387 28.7923 21.8027C28.2222 26.1699 27.9365 28.9922 27.9365 30.2655C27.9681 31.2871 28.0392 32.0119 28.1498 32.4412C28.2617 32.8718 28.3486 33.1514 28.4118 33.2786C28.5698 33.1196 28.7989 32.7128 29.1004 32.0596C29.402 31.4063 29.901 30.2827 30.5975 28.6888C31.136 27.4446 31.6587 26.1699 32.1656 24.8635C32.6712 23.557 33.0992 22.3288 33.4481 21.1813C33.4797 21.0541 33.5271 20.8951 33.5916 20.703C33.6535 20.5122 33.7338 20.3201 33.8286 20.1293C33.9234 19.9385 34.0498 19.7795 34.2091 19.6509C34.3671 19.5251 34.5725 19.4601 34.8266 19.4601ZM25.5612 22.5686C25.6244 22.0267 25.6718 21.6437 25.7034 21.4211C25.735 21.1985 25.7508 20.9587 25.7508 20.703C25.7508 19.9067 25.6481 19.4363 25.4454 19.2932C25.2426 19.1488 25.078 19.0785 24.9529 19.0785H24.7396C24.6304 19.0785 24.4737 19.1739 24.2696 19.3647C24.0668 19.5555 23.8325 19.8828 23.5665 20.3452C23.2992 20.8077 23.0095 21.5165 22.6962 22.4719C21.8193 25.0543 21.3808 27.43 21.3808 29.5964C21.3808 30.394 21.3953 31.0552 21.4269 31.5812C21.4585 32.1073 21.498 32.5299 21.5441 32.8479C21.5902 33.1673 21.6455 33.3978 21.7087 33.5409C21.7719 33.684 21.8351 33.7887 21.897 33.8523C22.1155 33.9795 22.3499 33.8046 22.6014 33.3263C22.8529 32.8479 23.2281 31.9085 23.7284 30.5053H23.7758C24.4342 28.7842 24.9503 27.063 25.3269 25.3405C25.3585 25.0543 25.3888 24.6886 25.4204 24.2421C25.452 23.7955 25.498 23.2536 25.5612 22.6163V22.5686Z" fill="#1F2548"/>
<path fill-rule="evenodd" clip-rule="evenodd" d="M38.4369 33.7088C37.6127 35.4949 36.5988 36.3866 35.3954 36.3866C34.9833 36.3866 34.533 36.2753 34.0419 36.0514C33.5494 35.8288 33.0833 35.3505 32.6396 34.6164C32.3552 34.0758 32.1327 33.4782 31.9747 32.8237C31.8154 32.1718 31.7377 31.4298 31.7377 30.6017C31.7377 29.8994 31.8799 27.9874 32.1643 24.8631C32.3223 23.334 32.4329 22.0978 32.4974 21.1571C32.5606 20.2176 32.5922 19.5883 32.5922 19.2689V18.5521C32.5922 18.3931 32.6396 18.2818 32.7357 18.2169C32.8305 18.1533 32.9964 18.1374 33.2348 18.1692C33.4718 18.201 33.8273 18.2646 34.3026 18.3613C35.1887 18.5203 35.7522 18.727 35.9905 18.9827C36.2262 19.2371 36.346 19.4597 36.346 19.6519C36.346 19.7473 36.3223 19.8904 36.2749 20.0825C36.2262 20.2733 36.1722 20.4813 36.1077 20.7039C36.0445 20.9265 35.9905 21.1345 35.9418 21.3253C35.8944 21.5161 35.8707 21.6447 35.8707 21.7069C35.8075 21.9627 35.7193 22.4251 35.61 23.0942C35.4981 23.7633 35.3638 24.4656 35.2058 25.1983C35.0149 26.2186 34.8806 27.1514 34.8016 27.9954C34.7226 28.8407 34.6831 29.7404 34.6831 30.6971C34.6831 30.8561 34.691 31.0787 34.7068 31.3662C34.7226 31.6524 34.7542 31.9479 34.8016 32.25C34.849 32.5534 34.928 32.8171 35.0386 33.0397C35.1505 33.2623 35.3006 33.3908 35.4902 33.4226C35.5534 33.3908 35.6811 33.2397 35.8707 32.9668C36.0603 32.6978 36.3131 32.1466 36.6318 31.3185C36.6936 31.1264 36.9162 30.6017 37.2967 29.7404C37.6759 28.8792 38.1038 27.684 38.5791 26.155C38.7371 25.6448 38.9425 25.0234 39.1966 24.2894C39.4494 23.5566 39.7193 22.6795 40.0037 21.6592C40.0353 21.5334 40.0827 21.3651 40.1473 21.1571C40.2105 20.9504 40.2895 20.7516 40.3843 20.5595C40.4791 20.3687 40.6055 20.2097 40.7648 20.0825C40.9228 19.9553 41.1282 19.8904 41.3823 19.8904C41.4771 19.8904 41.5956 19.9619 41.7378 20.1063C41.8813 20.2494 41.9524 20.6562 41.9524 21.3253C41.9524 21.4857 41.9366 21.7003 41.905 21.9706C41.8734 22.2409 41.7931 22.657 41.668 23.2135C41.5403 23.7713 41.3586 24.4802 41.1203 25.3414C40.8833 26.2027 40.5581 27.3011 40.1473 28.6407C39.7035 30.0756 39.3467 31.1979 39.0781 32.0115C38.8082 32.8237 38.5949 33.3908 38.4369 33.7088ZM35.4902 16.2572C34.666 16.2572 34.0182 15.9392 33.5429 15.3006C33.0359 14.695 32.7818 14.0736 32.7818 13.4363C32.7818 12.8944 33.0359 12.3683 33.5429 11.8582C34.113 11.3481 34.6199 11.0924 35.0636 11.0924C35.8233 11.0924 36.4092 11.3163 36.8214 11.7628C37.2322 12.2093 37.4389 12.8467 37.4389 13.6748C37.4389 14.2485 37.3678 14.7109 37.2243 15.0621C37.0821 15.4119 36.899 15.6755 36.6792 15.8504C36.4566 16.0267 36.2354 16.1366 36.0129 16.1843C35.7917 16.2334 35.6166 16.2572 35.4902 16.2572Z" fill="#1F2548"/>
<path fill-rule="evenodd" clip-rule="evenodd" d="M45.4208 16.448C45.8645 16.448 46.3148 16.5196 46.7756 16.6627C47.2338 16.8071 47.6459 17.0694 48.0107 17.4524C48.3741 17.8353 48.6756 18.3693 48.9139 19.0543C49.1509 19.7393 49.2694 20.6244 49.2694 21.7069C49.2694 23.3976 49.1588 25.0473 48.9363 26.6558C48.7151 28.2657 48.382 29.8358 47.9396 31.3662C46.9257 34.9675 45.6262 36.7682 44.0435 36.7682C43.0929 36.7682 42.2687 36.0991 41.5722 34.7608C41.2878 35.047 40.9704 35.1915 40.6215 35.1915C40.1475 35.1915 39.7038 34.9039 39.2917 34.3302C38.9428 33.7883 38.769 33.2782 38.769 32.7998C38.769 32.5772 38.8164 32.3692 38.9112 32.1784C38.8164 27.0785 39.1495 21.3253 39.9092 14.9176C40.162 12.8785 40.4082 10.9493 40.6452 9.13269C40.8835 7.31479 41.1126 5.53134 41.3352 3.77704C41.3984 3.04432 41.43 2.55009 41.43 2.29437V1.86507L41.3352 1.57754L41.4774 1.33904C41.5722 1.14824 41.746 0.965394 42.0001 0.789169C42.2529 0.614269 42.6176 0.525494 43.0929 0.525494H43.426C43.9948 0.525494 44.4478 0.693769 44.7796 1.02767C45.1114 1.36289 45.2786 1.84917 45.2786 2.48649C45.2786 2.61369 45.2549 2.81377 45.2075 3.08407C45.1601 3.35569 45.0561 3.80884 44.8981 4.44617C44.7401 5.05302 44.6137 5.59494 44.5175 6.07194C44.4227 6.55159 44.3437 6.99812 44.2805 7.41152C43.8368 9.73822 43.4721 11.8503 43.1877 13.7463C42.9033 15.6437 42.665 17.3411 42.4754 18.8383C42.665 18.4885 42.8862 18.1215 43.1403 17.7386C43.742 16.8786 44.5017 16.448 45.4208 16.448ZM45.2312 30.9833C45.9593 28.3372 46.324 25.564 46.324 22.6636C46.324 21.2935 46.2529 20.3766 46.1094 19.9142C45.9672 19.4531 45.8645 19.1894 45.8013 19.1258C45.7368 19.1576 45.6591 19.2371 45.5643 19.3643C45.4682 19.4929 45.3339 19.7155 45.1601 20.0335C44.985 20.3528 44.7875 20.7834 44.5663 21.3253C44.3437 21.8673 44.0909 22.5682 43.8052 23.4294C43.2667 24.9916 42.8625 26.4491 42.5939 27.8033C42.324 29.1587 42.1739 30.4095 42.1423 31.557C42.4596 31.9399 42.8388 32.4818 43.2825 33.1828C43.4089 33.4054 43.5208 33.5339 43.6156 33.5657C43.7104 33.5975 43.7736 33.6134 43.8052 33.6134C43.9316 33.6134 44.1212 33.4305 44.3753 33.0635C44.6295 32.6978 44.9139 32.0035 45.2312 30.9833Z" fill="#1F2548"/>
<path d="M7.57344 52.0882C7.48575 52.248 7.54418 52.4486 7.70395 52.5363C7.86372 52.624 8.06433 52.5656 8.15202 52.4058L7.57344 52.0882ZM12.0559 45.2932C12.1436 45.1334 12.0852 44.9328 11.9254 44.8451C11.7657 44.7574 11.5651 44.8159 11.4774 44.9756L12.0559 45.2932ZM15.3799 52.4057C15.4676 52.5655 15.6682 52.624 15.828 52.5363C15.9878 52.4486 16.0462 52.248 15.9586 52.0883L15.3799 52.4057ZM12.056 44.9757C11.9683 44.8159 11.7677 44.7574 11.6079 44.8451C11.4481 44.9328 11.3897 45.1334 11.4773 45.2931L12.056 44.9757ZM23.1865 52.4057C23.2741 52.5655 23.4747 52.624 23.6345 52.5363C23.7943 52.4486 23.8527 52.248 23.7651 52.0883L23.1865 52.4057ZM19.8625 44.9757C19.7748 44.8159 19.5742 44.7574 19.4144 44.8451C19.2546 44.9328 19.1962 45.1334 19.2839 45.2931L19.8625 44.9757ZM15.38 52.0882C15.2923 52.248 15.3507 52.4486 15.5105 52.5363C15.6702 52.624 15.8708 52.5656 15.9585 52.4058L15.38 52.0882ZM19.8625 45.2932C19.9501 45.1334 19.8917 44.9328 19.7319 44.8451C19.5722 44.7574 19.3716 44.8159 19.2839 44.9756L19.8625 45.2932ZM23.1865 52.0882C23.0988 52.248 23.1572 52.4486 23.317 52.5363C23.4768 52.624 23.6774 52.5656 23.7651 52.4058L23.1865 52.0882ZM27.669 45.2932C27.7567 45.1334 27.6982 44.9328 27.5385 44.8451C27.3787 44.7574 27.1781 44.8159 27.0904 44.9756L27.669 45.2932ZM30.9943 52.4058C31.082 52.5656 31.2826 52.624 31.4424 52.5363C31.6022 52.4486 31.6606 52.248 31.5729 52.0882L30.9943 52.4058ZM27.669 44.9756C27.5813 44.8159 27.3807 44.7574 27.2209 44.8451C27.0611 44.9328 27.0027 45.1334 27.0904 45.2932L27.669 44.9756ZM38.8008 52.4057C38.8885 52.5655 39.0891 52.624 39.2489 52.5363C39.4086 52.4486 39.4671 52.248 39.3794 52.0883L38.8008 52.4057ZM35.4768 44.9757C35.3892 44.8159 35.1886 44.7574 35.0288 44.8451C34.869 44.9328 34.8105 45.1334 34.8982 45.2931L35.4768 44.9757ZM30.9943 52.0882C30.9066 52.248 30.965 52.4486 31.1248 52.5363C31.2846 52.624 31.4852 52.5656 31.5729 52.4058L30.9943 52.0882ZM35.4768 45.2932C35.5645 45.1334 35.5061 44.9328 35.3463 44.8451C35.1865 44.7574 34.9859 44.8159 34.8982 44.9756L35.4768 45.2932ZM38.8008 52.0882C38.7131 52.248 38.7716 52.4486 38.9313 52.5363C39.0911 52.624 39.2917 52.5656 39.3794 52.4058L38.8008 52.0882ZM43.2833 45.2932C43.371 45.1334 43.3126 44.9328 43.1528 44.8451C42.993 44.7574 42.7924 44.8159 42.7047 44.9756L43.2833 45.2932ZM46.6073 52.4057C46.695 52.5655 46.8956 52.624 47.0554 52.5363C47.2152 52.4486 47.2736 52.248 47.1859 52.0883L46.6073 52.4057ZM43.2833 44.9757C43.1957 44.8159 42.9951 44.7574 42.8353 44.8451C42.6755 44.9328 42.6171 45.1334 42.7047 45.2931L43.2833 44.9757ZM54.4165 52.4058C54.5042 52.5656 54.7048 52.624 54.8646 52.5363C55.0243 52.4486 55.0828 52.248 54.9951 52.0882L54.4165 52.4058ZM51.0912 44.9756C51.0035 44.8159 50.8029 44.7574 50.6431 44.8451C50.4833 44.9328 50.4249 45.1334 50.5126 45.2932L51.0912 44.9756ZM46.6074 52.0882C46.5196 52.2479 46.5781 52.4486 46.7378 52.5363C46.8976 52.624 47.0982 52.5656 47.1859 52.4058L46.6074 52.0882ZM51.0911 45.2932C51.1788 45.1335 51.1204 44.9329 50.9607 44.8451C50.8009 44.7574 50.6003 44.8158 50.5126 44.9756L51.0911 45.2932ZM54.4164 52.0883C54.3288 52.2481 54.3873 52.4487 54.5471 52.5363C54.7069 52.624 54.9075 52.5655 54.9951 52.4057L54.4164 52.0883ZM58.8964 45.2931C58.984 45.1333 58.9256 44.9327 58.7658 44.8451C58.606 44.7574 58.4054 44.8159 58.3177 44.9757L58.8964 45.2931ZM62.223 52.4058C62.3107 52.5656 62.5114 52.624 62.6711 52.5363C62.8309 52.4486 62.8893 52.2479 62.8016 52.0882L62.223 52.4058ZM58.8963 44.9756C58.8086 44.8158 58.608 44.7574 58.4482 44.8451C58.2885 44.9329 58.2301 45.1335 58.3178 45.2932L58.8963 44.9756ZM70.0295 52.4058C70.1173 52.5656 70.3179 52.624 70.4776 52.5363C70.6374 52.4486 70.6958 52.2479 70.6081 52.0882L70.0295 52.4058ZM66.7028 44.9756C66.6151 44.8158 66.4145 44.7574 66.2548 44.8451C66.095 44.9329 66.0366 45.1335 66.1243 45.2932L66.7028 44.9756ZM62.223 52.0883C62.1353 52.2481 62.1938 52.4487 62.3536 52.5363C62.5134 52.624 62.714 52.5655 62.8016 52.4057L62.223 52.0883ZM66.7029 45.2931C66.7906 45.1333 66.7321 44.9327 66.5723 44.8451C66.4125 44.7574 66.2119 44.8159 66.1242 44.9757L66.7029 45.2931ZM8.15202 52.4058L12.0559 45.2932L11.4774 44.9756L7.57344 52.0882L8.15202 52.4058ZM15.9586 52.0883L12.056 44.9757L11.4773 45.2931L15.3799 52.4057L15.9586 52.0883ZM23.7651 52.0883L19.8625 44.9757L19.2839 45.2931L23.1865 52.4057L23.7651 52.0883ZM15.9585 52.4058L19.8625 45.2932L19.2839 44.9756L15.38 52.0882L15.9585 52.4058ZM23.7651 52.4058L27.669 45.2932L27.0904 44.9756L23.1865 52.0882L23.7651 52.4058ZM31.5729 52.0882L27.669 44.9756L27.0904 45.2932L30.9943 52.4058L31.5729 52.0882ZM39.3794 52.0883L35.4768 44.9757L34.8982 45.2931L38.8008 52.4057L39.3794 52.0883ZM31.5729 52.4058L35.4768 45.2932L34.8982 44.9756L30.9943 52.0882L31.5729 52.4058ZM39.3794 52.4058L43.2833 45.2932L42.7047 44.9756L38.8008 52.0882L39.3794 52.4058ZM47.1859 52.0883L43.2833 44.9757L42.7047 45.2931L46.6073 52.4057L47.1859 52.0883ZM54.9951 52.0882L51.0912 44.9756L50.5126 45.2932L54.4165 52.4058L54.9951 52.0882ZM47.1859 52.4058L51.0911 45.2932L50.5126 44.9756L46.6074 52.0882L47.1859 52.4058ZM54.9951 52.4057L58.8964 45.2931L58.3177 44.9757L54.4164 52.0883L54.9951 52.4057ZM62.8016 52.0882L58.8963 44.9756L58.3178 45.2932L62.223 52.4058L62.8016 52.0882ZM70.6081 52.0882L66.7028 44.9756L66.1243 45.2932L70.0295 52.4058L70.6081 52.0882ZM62.8016 52.4057L66.7029 45.2931L66.1242 44.9757L62.223 52.0883L62.8016 52.4057Z" fill="#1F2548"/>
</svg>
