<svg width="453" height="122" viewBox="0 0 453 122" fill="none" xmlns="http://www.w3.org/2000/svg">
<path d="M45.206 36H44.706V37H45.206V36ZM72.5681 36.5L67.5681 33.6132V39.3868L72.5681 36.5ZM45.206 37H68.0681V36H45.206V37Z" fill="#202446"/>
<path d="M193.206 36H192.706V37H193.206V36ZM220.568 36.5L215.568 33.6132V39.3868L220.568 36.5ZM193.206 37H216.068V36H193.206V37Z" fill="#202446"/>
<path d="M338.206 36H337.706V37H338.206V36ZM365.568 36.5L360.568 33.6132V39.3868L365.568 36.5ZM338.206 37H361.068V36H338.206V37Z" fill="#202446"/>
<rect x="17.5" y="104.5" width="13" height="13" stroke="#7F7C89" stroke-opacity="0.572351"/>
<rect x="270.5" y="104.5" width="13" height="13" stroke="#7F7C89" stroke-opacity="0.572351"/>
<path fill-rule="evenodd" clip-rule="evenodd" d="M235.224 26.1983C235.15 26.4012 235.084 26.5701 235.238 26.7845L235.014 26.4702C235.037 26.3915 235.149 26.1522 235.13 26.0829C235.041 25.7271 235.301 25.4652 235.652 25.5432C235.826 25.5817 235.907 25.7306 235.959 25.8876C236.014 26.0475 235.967 26.1976 235.799 26.2849C235.601 26.3865 235.418 26.362 235.224 26.1983Z" fill="#FEFEFE"/>
<path fill-rule="evenodd" clip-rule="evenodd" d="M294.953 23.0691L298.404 33.4554L253.595 49.6007L246.166 23.7601L281.769 11.6477L294.953 23.0691Z" fill="#FEFEFE"/>
<path fill-rule="evenodd" clip-rule="evenodd" d="M277.558 15.2277C279.391 14.5956 281.264 13.8187 281.264 13.8187C284.609 16.425 287.519 18.8797 292.286 22.4996C290.759 22.9002 283.112 25.3952 281.126 26.0831C279.977 22.7841 278.724 18.2015 277.558 15.2277ZM254.271 59.0845C255.486 58.1489 258.208 57.3422 259.58 56.8686L274.079 51.8499C282.246 50.6041 295.251 43.7154 302.832 42.6504L316.601 37.5045C318.821 37.2547 319.096 36.6402 320.923 36.0091C320.923 36.0091 316.794 23.9198 315.285 20.8594C313.972 18.1975 310.226 16.9212 306.526 18.1803C301.244 19.9826 296.088 21.4715 296.088 21.4715C292.489 17.3882 285.286 13.2052 281.508 10.1017C271.502 11.7496 247.607 21.2384 242.316 22.7575C242.303 27.7695 252.575 53.7328 254.271 59.0845Z" fill="#202446"/>
<path d="M277.558 15.2277L277.447 14.9037C277.358 14.9341 277.286 14.9993 277.247 15.084C277.208 15.1688 277.205 15.2658 277.239 15.3528L277.558 15.2277ZM281.264 13.8187L281.474 13.5483C281.377 13.4725 281.246 13.4549 281.132 13.5022L281.264 13.8187ZM292.286 22.4996L292.373 22.8311C292.5 22.7978 292.597 22.6951 292.622 22.5665C292.648 22.4379 292.598 22.306 292.494 22.2267L292.286 22.4996ZM281.126 26.0831L280.803 26.1959C280.865 26.3744 281.06 26.4689 281.239 26.407L281.126 26.0831ZM254.271 59.0845L253.944 59.188C253.978 59.2946 254.062 59.3781 254.168 59.4115C254.275 59.445 254.391 59.4243 254.48 59.356L254.271 59.0845ZM259.58 56.8686L259.692 57.1926L259.692 57.1925L259.58 56.8686ZM274.079 51.8499L274.027 51.5111C274.006 51.5143 273.986 51.5193 273.966 51.5261L274.079 51.8499ZM302.832 42.6504L302.88 42.9898C302.904 42.9863 302.928 42.9802 302.952 42.9715L302.832 42.6504ZM316.601 37.5045L316.563 37.1639C316.535 37.1671 316.507 37.1736 316.481 37.1835L316.601 37.5045ZM320.923 36.0091L321.035 36.3331C321.213 36.2714 321.308 36.0771 321.247 35.8984L320.923 36.0091ZM315.285 20.8594L315.593 20.7078L315.593 20.7077L315.285 20.8594ZM306.526 18.1803L306.416 17.8559L306.415 17.856L306.526 18.1803ZM296.088 21.4715L295.831 21.6981C295.919 21.7975 296.056 21.8375 296.183 21.8007L296.088 21.4715ZM281.508 10.1017L281.725 9.83692C281.649 9.77427 281.549 9.74754 281.452 9.76358L281.508 10.1017ZM242.316 22.7575L242.221 22.4281C242.075 22.4702 241.974 22.6041 241.973 22.7566L242.316 22.7575ZM277.67 15.5517C278.593 15.2335 279.524 14.8794 280.223 14.6053C280.573 14.4681 280.866 14.3507 281.071 14.2676C281.174 14.2261 281.254 14.193 281.31 14.1704C281.337 14.1591 281.358 14.1503 281.373 14.1444C281.38 14.1414 281.385 14.1392 281.389 14.1376C281.391 14.1369 281.392 14.1363 281.393 14.1359C281.394 14.1357 281.394 14.1355 281.394 14.1354C281.395 14.1354 281.395 14.1353 281.395 14.1353C281.395 14.1353 281.395 14.1353 281.395 14.1353C281.395 14.1353 281.395 14.1353 281.264 13.8187C281.132 13.5022 281.132 13.5022 281.132 13.5022C281.132 13.5022 281.132 13.5022 281.132 13.5022C281.132 13.5022 281.132 13.5022 281.132 13.5023C281.132 13.5024 281.131 13.5025 281.131 13.5027C281.13 13.503 281.129 13.5036 281.127 13.5043C281.124 13.5057 281.118 13.5079 281.111 13.5108C281.097 13.5166 281.077 13.5251 281.049 13.5363C280.995 13.5586 280.915 13.5912 280.814 13.6323C280.611 13.7146 280.32 13.831 279.973 13.9671C279.278 14.2394 278.357 14.5898 277.447 14.9037L277.67 15.5517ZM281.053 14.0891C284.383 16.683 287.314 19.1545 292.079 22.7726L292.494 22.2267C287.723 18.605 284.836 16.167 281.474 13.5483L281.053 14.0891ZM292.199 22.1681C290.658 22.5725 282.999 25.0717 281.014 25.7593L281.239 26.407C283.225 25.7186 290.861 23.2279 292.373 22.8311L292.199 22.1681ZM281.45 25.9704C280.878 24.3277 280.279 22.3652 279.675 20.4313C279.073 18.5029 278.465 16.6025 277.877 15.1027L277.239 15.3528C277.817 16.8267 278.418 18.7045 279.021 20.6356C279.623 22.5613 280.226 24.5395 280.803 26.1959L281.45 25.9704ZM254.48 59.356C255.043 58.9226 255.983 58.5019 256.987 58.1241C257.986 57.7481 258.991 57.4343 259.692 57.1926L259.468 56.5446C258.796 56.7765 257.754 57.1029 256.746 57.4826C255.742 57.8604 254.714 58.3108 254.062 58.813L254.48 59.356ZM259.692 57.1925L274.191 52.1738L273.966 51.5261L259.468 56.5447L259.692 57.1925ZM274.13 52.1887C278.259 51.5589 283.592 49.508 288.799 47.5022C294.035 45.4849 299.137 43.5155 302.88 42.9898L302.784 42.311C298.945 42.8503 293.756 44.8578 288.552 46.8626C283.319 48.8788 278.066 50.8951 274.027 51.5111L274.13 52.1887ZM302.952 42.9715L316.721 37.8255L316.481 37.1835L302.712 42.3294L302.952 42.9715ZM316.639 37.8451C317.787 37.716 318.445 37.4899 319.052 37.2113C319.658 36.9334 320.142 36.6416 321.035 36.3331L320.811 35.6852C319.877 36.0078 319.31 36.3387 318.766 36.5883C318.224 36.8372 317.636 37.0432 316.563 37.1639L316.639 37.8451ZM320.923 36.0091C321.247 35.8984 321.247 35.8983 321.247 35.8982C321.247 35.8981 321.247 35.898 321.247 35.8978C321.247 35.8974 321.247 35.8969 321.246 35.8961C321.246 35.8947 321.245 35.8924 321.244 35.8895C321.242 35.8837 321.239 35.8749 321.235 35.8634C321.227 35.8404 321.216 35.8062 321.2 35.7615C321.17 35.6721 321.125 35.5406 321.067 35.3722C320.951 35.0353 320.783 34.5508 320.578 33.9598C320.167 32.778 319.604 31.17 318.993 29.4663C317.775 26.069 316.358 22.2597 315.593 20.7078L314.978 21.011C315.722 22.5195 317.124 26.2851 318.347 29.6976C318.957 31.3987 319.52 33.0044 319.931 34.1849C320.136 34.7751 320.303 35.259 320.418 35.5952C320.476 35.7634 320.521 35.8946 320.552 35.9837C320.567 36.0283 320.579 36.0624 320.587 36.0853C320.591 36.0968 320.594 36.1054 320.596 36.1112C320.597 36.1141 320.597 36.1163 320.598 36.1177C320.598 36.1185 320.598 36.119 320.598 36.1194C320.598 36.1195 320.598 36.1197 320.599 36.1198C320.599 36.1199 320.599 36.1199 320.923 36.0091ZM315.593 20.7077C314.181 17.8471 310.226 16.5589 306.416 17.8559L306.636 18.5048C310.225 17.2835 313.762 18.5479 314.978 21.0111L315.593 20.7077ZM306.415 17.856C303.779 18.7555 301.173 19.5772 299.226 20.1741C298.252 20.4725 297.444 20.7146 296.879 20.8821C296.596 20.9658 296.375 21.0309 296.224 21.075C296.148 21.0971 296.09 21.1139 296.052 21.1252C296.032 21.1309 296.017 21.1351 296.008 21.138C296.003 21.1394 295.999 21.1405 295.997 21.1412C295.995 21.1415 295.994 21.1418 295.994 21.142C295.994 21.1421 295.993 21.1421 295.993 21.1422C295.993 21.1422 295.993 21.1422 295.993 21.1422C295.993 21.1422 295.993 21.1422 296.088 21.4715C296.183 21.8007 296.183 21.8007 296.183 21.8007C296.183 21.8007 296.183 21.8007 296.183 21.8007C296.184 21.8006 296.184 21.8005 296.184 21.8005C296.185 21.8003 296.186 21.8 296.187 21.7996C296.19 21.7989 296.193 21.7978 296.198 21.7963C296.208 21.7934 296.223 21.7891 296.243 21.7834C296.282 21.772 296.34 21.7551 296.416 21.7329C296.568 21.6886 296.79 21.6233 297.074 21.5393C297.64 21.3713 298.451 21.1285 299.427 20.8294C301.378 20.2313 303.991 19.4074 306.637 18.5047L306.415 17.856ZM296.345 21.2449C294.517 19.1704 291.786 17.0838 289.064 15.1402C286.325 13.1845 283.602 11.3789 281.725 9.83692L281.29 10.3666C283.191 11.928 285.959 13.7657 288.666 15.6981C291.39 17.6427 294.06 19.6892 295.831 21.6981L296.345 21.2449ZM281.452 9.76358C276.414 10.5933 267.909 13.389 260.03 16.1545C252.125 18.9294 244.854 21.672 242.221 22.4281L242.411 23.0869C245.068 22.3238 252.391 19.5625 260.257 16.8013C268.15 14.0306 276.596 11.258 281.563 10.4399L281.452 9.76358ZM241.973 22.7566C241.972 23.4266 242.139 24.4143 242.423 25.6166C242.708 26.8269 243.118 28.2811 243.612 29.8959C244.602 33.1259 245.94 37.0142 247.33 40.9088C250.114 48.7124 253.098 56.5188 253.944 59.188L254.598 58.981C253.747 56.2985 250.748 48.4474 247.976 40.6784C246.587 36.7867 245.253 32.91 244.268 29.695C243.775 28.0873 243.371 26.649 243.09 25.4592C242.808 24.2614 242.657 23.3414 242.659 22.7583L241.973 22.7566Z" fill="#202348"/>
<path fill-rule="evenodd" clip-rule="evenodd" d="M273.949 52.473C274.848 56.5884 272.383 60.6073 268.443 61.4496C264.502 62.2922 260.579 59.6391 259.679 55.5239C258.78 51.4085 261.245 47.3897 265.185 46.5471C269.125 45.7047 273.049 48.3576 273.949 52.473Z" fill="#FEFEFE"/>
<path fill-rule="evenodd" clip-rule="evenodd" d="M273.949 52.473C274.848 56.5884 272.383 60.6073 268.443 61.4496C264.502 62.2922 260.579 59.6391 259.679 55.5239C258.78 51.4085 261.245 47.3897 265.185 46.5471C269.125 45.7047 273.049 48.3576 273.949 52.473Z" stroke="#202348" stroke-width="0.96" stroke-linecap="round" stroke-linejoin="round"/>
<path fill-rule="evenodd" clip-rule="evenodd" d="M316.811 38.6868C317.71 42.8023 315.245 46.8211 311.305 47.6634C307.365 48.506 303.441 45.8529 302.541 41.7377C301.642 37.6223 304.107 33.6035 308.047 32.7609C311.987 31.9185 315.911 34.5714 316.811 38.6868Z" fill="#FEFEFE"/>
<path fill-rule="evenodd" clip-rule="evenodd" d="M316.811 38.6868C317.71 42.8023 315.245 46.8211 311.305 47.6634C307.365 48.506 303.441 45.8529 302.541 41.7377C301.642 37.6223 304.107 33.6035 308.047 32.7609C311.987 31.9185 315.911 34.5714 316.811 38.6868Z" stroke="#202348" stroke-width="0.96" stroke-linecap="round" stroke-linejoin="round"/>
<path fill-rule="evenodd" clip-rule="evenodd" d="M311.906 39.8783C312.157 41.0288 311.436 42.1592 310.297 42.4028C309.156 42.6466 308.029 41.9113 307.778 40.7609C307.526 39.6091 308.245 38.4789 309.386 38.2353C310.525 37.9914 311.654 38.7265 311.906 39.8783Z" stroke="#202348" stroke-width="0.96" stroke-linecap="round" stroke-linejoin="round"/>
<path fill-rule="evenodd" clip-rule="evenodd" d="M268.936 53.4562C269.188 54.6066 268.47 55.7363 267.328 55.9804C266.19 56.2237 265.062 55.4887 264.81 54.3383C264.558 53.1864 265.279 52.056 266.417 51.8129C267.558 51.5686 268.685 52.3041 268.936 53.4562Z" stroke="#202348" stroke-width="0.96" stroke-linecap="round" stroke-linejoin="round"/>
<path fill-rule="evenodd" clip-rule="evenodd" d="M269.285 13.385L282.372 49.859L285.803 48.2826L272.642 12.3131L269.285 13.385Z" fill="#F8B100"/>
<path fill-rule="evenodd" clip-rule="evenodd" d="M245.058 21.2471L258.145 57.7211L259.709 57.2218C258.624 55.0432 259.519 51.2252 259.738 51.1198L248.416 20.1752L245.058 21.2471Z" fill="#F8B100"/>
<path d="M247.782 20.9449L246.502 23.6035L249 24.8681L248.137 27.6435L250.677 28.4573L249.694 31.8331L252.487 32.5663L250.893 35.6999L253.799 36.5844L252.307 39.2587L254.926 40.0368L253.84 43.7583L256.593 44.2543L255.247 47.6834L258.126 48.9516L256.546 51.0809L258.824 51.9782L257.708 54.8345L259.287 55.8386" stroke="#202446" stroke-width="0.5" stroke-linecap="round" stroke-linejoin="round"/>
<path d="M272.11 13.1353L271.147 15.7342L273.643 17.1869L272.145 20.0818L275.375 21.7168L273.838 24.6868L277.157 26.2725L275.931 29.8717L278.746 31.1396L277.799 34.6915L280.663 36.2354L279.289 39.3821L282.059 40.5121L281.007 43.9997L283.71 45.0533L282.416 47.7997L285.065 48.1711" stroke="#202446" stroke-width="0.5" stroke-linecap="round" stroke-linejoin="round"/>
<path d="M267.867 32.5292C267.874 32.4871 267.881 32.4395 267.886 32.3889C267.938 31.9842 267.956 31.3453 267.807 31.0286C267.515 30.4132 267.074 29.9094 266.693 29.3592C266.291 28.7799 265.908 28.1871 265.516 27.6031C265.291 27.2696 265.053 26.9406 264.986 26.8825" stroke="#FEFEFE" stroke-width="0.5" stroke-linecap="round"/>
<path d="M271.408 27.9125C271.606 28.3547 271.602 28.3074 271.635 28.5491C271.657 28.7185 271.492 28.9421 271.384 29.0646C270.93 29.5789 270.48 30.0953 269.973 30.5647C269.329 31.1613 268.929 31.4796 268.502 31.8852C268.406 31.9763 268.247 32.0948 267.941 32.395" stroke="#FEFEFE" stroke-width="0.5" stroke-linecap="round"/>
<path d="M263.868 22.0576C264.512 21.8081 265.104 21.6687 265.779 21.4945C266.038 21.426 266.389 21.3834 266.67 21.363C266.748 21.3575 266.827 21.3463 266.923 21.3706C267.03 21.1979 267.076 21.0047 267.179 20.8387C267.304 20.6415 267.468 20.548 267.696 20.5556C267.924 20.5608 268.148 20.6001 268.344 20.7197C268.527 20.8316 268.605 21.0264 268.671 21.211C268.768 21.4881 268.775 21.771 268.645 22.0457C268.546 22.2503 268.468 22.4656 268.353 22.6609C268.308 22.7399 268.328 22.7998 268.361 22.8369C268.804 23.3584 269.965 24.9898 271.408 27.9125" stroke="#FEFEFE" stroke-width="0.5" stroke-linecap="round"/>
<path d="M255.254 26.7986C254.956 26.6549 254.616 26.5638 254.346 26.3594C254.082 26.1572 253.93 25.9446 254.034 25.5956C254.15 25.2031 254.278 24.8405 254.669 24.6084C254.868 24.4904 255.022 24.4671 255.209 24.581C255.432 24.7164 255.628 24.7873 255.923 24.6788C256.322 24.5327 256.733 24.4076 257.14 24.2782C257.855 24.0489 258.572 23.8279 259.285 23.5921C260.024 23.3488 263.123 22.2885 263.868 22.0575" stroke="#FEFEFE" stroke-width="0.5" stroke-linecap="round"/>
<path d="M265.186 34.9218C265.333 34.8578 265.96 34.6684 266.104 34.5999C266.162 34.5726 266.231 34.5505 266.296 34.5295C266.626 34.4201 266.941 34.2831 267.246 34.1151C267.401 34.0307 267.498 33.9153 267.557 33.7628C267.711 33.3641 267.797 32.9476 267.867 32.5291" stroke="#FEFEFE" stroke-width="0.5" stroke-linecap="round"/>
<path d="M264.987 26.8825C264.819 26.7493 264.656 26.5949 264.44 26.5397C264.175 26.4714 263.937 26.5454 263.687 26.5875C263.016 26.7 262.409 26.986 261.789 27.2343C261.57 27.3219 261.45 27.4936 261.365 27.7217C261.155 28.292 261.246 28.8693 261.285 29.4447C261.322 29.9886 261.363 30.5305 261.403 31.0731C261.444 31.6171 261.455 32.1623 261.534 32.7007C261.578 32.994 261.7 33.2818 261.92 33.5183C262.201 33.8249 262.526 34.1525 262.871 34.408C262.957 34.4739 263.046 34.535 263.135 34.5904C263.343 34.7063 263.736 34.9085 263.936 34.9563C264.006 34.988 264.131 34.9953 264.231 35.0091C264.566 35.0584 264.884 35.0469 265.186 34.9218" stroke="#FEFEFE" stroke-width="0.5" stroke-linecap="round"/>
<path d="M255.507 29.032C255.518 29.3499 255.971 32.1857 256.018 32.4964C256.074 32.8689 256.144 33.24 256.27 33.5992C256.398 33.9684 256.608 34.188 257.018 34.271C257.874 34.4439 258.992 34.5712 259.543 34.5779C260.613 34.5879 262.267 34.532 262.834 34.4573" stroke="#FEFEFE" stroke-width="0.5" stroke-linecap="round"/>
<path d="M255.254 26.7986C255.286 27.1559 255.305 27.5163 255.354 27.871C255.41 28.2582 255.446 28.6467 255.507 29.0321" stroke="#FEFEFE" stroke-width="0.5" stroke-linecap="round"/>
<path fill-rule="evenodd" clip-rule="evenodd" d="M265.467 33.9912C266.009 33.8018 266.019 33.8746 266.145 33.6912C266.409 33.3122 266.586 32.7967 266.768 32.3938C266.836 32.2418 266.983 31.9356 266.895 31.7405C266.735 31.3828 266.727 31.1867 266.561 30.818C266.448 30.5666 266.389 30.5418 266.108 30.6037C265.588 30.7164 265.065 30.8299 264.555 30.981C263.81 31.1989 264.199 31.0433 263.402 31.3773C263.2 31.462 262.982 31.5055 262.787 31.6259C262.636 31.7198 262.602 31.824 262.63 31.9734C262.704 32.3919 262.807 32.8025 262.955 33.2026C263.008 33.3413 263.118 33.4057 263.244 33.4488C263.781 33.6339 264.321 33.8123 264.86 33.9912C264.953 34.0219 265.085 34.1244 265.467 33.9912Z" stroke="#FEFEFE" stroke-width="0.5" stroke-linecap="round"/>
<path fill-rule="evenodd" clip-rule="evenodd" d="M265.082 26.9461C265.105 26.8676 265.217 26.628 265.198 26.5588C265.11 26.2029 265.369 25.9408 265.72 26.0191C265.895 26.0576 265.975 26.2067 266.027 26.3637C266.083 26.5234 266.036 26.6735 265.868 26.761C265.67 26.8621 265.486 26.8379 265.292 26.674C265.218 26.8769 265.153 27.0462 265.306 27.2601L265.082 26.9461Z" fill="#FEFEFE"/>
<path fill-rule="evenodd" clip-rule="evenodd" d="M260.893 27.8496C260.939 27.9766 261.042 27.904 261.257 27.9937L261.235 28.0846C261.188 28.0613 261.024 28.0063 260.947 28.0151C260.995 28.1648 260.905 28.2973 260.808 28.3691C260.672 28.469 260.529 28.5294 260.36 28.4947C260.201 28.4595 260.124 28.3039 260.093 28.1614C259.987 27.6452 260.778 27.5267 260.893 27.8496Z" fill="#FEFEFE"/>
<mask id="mask0" mask-type="alpha" maskUnits="userSpaceOnUse" x="239" y="60" width="79" height="4">
<path fill-rule="evenodd" clip-rule="evenodd" d="M239.116 60.3266H317.4V63.7842H239.116V60.3266Z" fill="white"/>
</mask>
<g mask="url(#mask0)">
<path fill-rule="evenodd" clip-rule="evenodd" d="M239.695 61.5173C259.71 62.717 279.753 63.4451 299.804 63.6904C305.475 63.7599 311.147 63.7898 316.819 63.7834C317.593 63.7824 317.594 62.593 316.819 62.594C296.767 62.6163 276.715 62.1665 256.686 61.2342C251.02 60.9704 245.356 60.6673 239.695 60.3279C238.921 60.2817 238.924 61.4712 239.695 61.5173Z" fill="#202446"/>
</g>
<path fill-rule="evenodd" clip-rule="evenodd" d="M248.632 56.754C243.41 54.9071 238.112 53.2897 232.747 51.905C231.997 51.7116 231.678 52.8584 232.427 53.0518C237.792 54.4368 243.091 56.0542 248.312 57.9009C249.042 58.1592 249.356 57.0105 248.632 56.754Z" fill="#202446"/>
<path fill-rule="evenodd" clip-rule="evenodd" d="M247.167 53.9261C242.764 51.4631 238.683 48.5159 234.975 45.1115C234.409 44.5913 233.556 45.4305 234.125 45.9527C237.904 49.4234 242.07 52.442 246.56 54.9531C247.234 55.3304 247.841 54.3032 247.167 53.9261Z" fill="#202446"/>
<path fill-rule="evenodd" clip-rule="evenodd" d="M24.4375 120.875C29.0972 120.875 32.875 117.097 32.875 112.438C32.875 107.778 29.0972 104 24.4375 104C19.7778 104 16 107.778 16 112.438C16 117.097 19.7778 120.875 24.4375 120.875Z" stroke="#009638" stroke-width="1.125"/>
<path d="M19.5397 111.882L23.3838 117.649L30.7897 106.257" stroke="#009638" stroke-width="1.125"/>
<path fill-rule="evenodd" clip-rule="evenodd" d="M127.438 119.875C132.097 119.875 135.875 116.097 135.875 111.438C135.875 106.778 132.097 103 127.438 103C122.778 103 119 106.778 119 111.438C119 116.097 122.778 119.875 127.438 119.875Z" stroke="#009638" stroke-width="1.125"/>
<path d="M122.54 110.882L126.384 116.649L133.79 105.257" stroke="#009638" stroke-width="1.125"/>
<path fill-rule="evenodd" clip-rule="evenodd" d="M276.438 118.875C281.097 118.875 284.875 115.097 284.875 110.438C284.875 105.778 281.097 102 276.438 102C271.778 102 268 105.778 268 110.438C268 115.097 271.778 118.875 276.438 118.875Z" stroke="#009638" stroke-width="1.125"/>
<path d="M271.54 109.882L275.384 115.649L282.79 104.257" stroke="#009638" stroke-width="1.125"/>
<path fill-rule="evenodd" clip-rule="evenodd" d="M419.438 119.875C424.097 119.875 427.875 116.097 427.875 111.438C427.875 106.778 424.097 103 419.438 103C414.778 103 411 106.778 411 111.438C411 116.097 414.778 119.875 419.438 119.875Z" stroke="#009638" stroke-width="1.125"/>
<path d="M414.54 110.882L418.384 116.649L425.79 105.257" stroke="#009638" stroke-width="1.125"/>
<path fill-rule="evenodd" clip-rule="evenodd" d="M396.716 17.0182L388.466 19.8716C388.466 19.8716 385.875 20.0705 386.025 21.2869C386.176 22.5033 386.468 33.7695 386.468 33.7695L386.576 57.8175L386.571 66.7348C386.571 66.7348 389.076 67.5791 391.924 69.2836C394.772 70.988 399.047 72.6565 400.116 72.7888C401.184 72.921 401.501 72.8691 401.419 72.3876C401.337 71.9061 401.348 59.4883 401.348 59.4883L401.346 36.7836C401.346 36.7836 401.353 23.9334 401.842 23.4624C402.331 22.9914 410.084 18.3514 410.084 18.3514L396.716 17.0182Z" fill="#B17F48"/>
<path fill-rule="evenodd" clip-rule="evenodd" d="M410.085 18.3514C410.085 18.3514 406.846 20.3525 405.377 21.1097C403.909 21.8669 401.706 22.8719 401.65 23.9197C401.595 24.9671 401.348 36.2595 401.348 36.2595L401.329 65.3746V72.1893C401.329 72.1893 401.298 72.9352 402.1 72.4242C402.902 71.9129 409.976 66.5904 409.976 66.5904L411.426 65.16C411.426 65.16 410.887 62.2364 410.861 60.8022C410.835 59.3682 410.589 52.1168 410.589 52.1168L410.352 35.9974L410.254 19.7194C410.254 19.7194 410.197 18.7029 410.085 18.3514Z" fill="#946C3E"/>
<path fill-rule="evenodd" clip-rule="evenodd" d="M386.44 29.7256V32.1402C386.44 32.1402 392.612 34.041 395.564 34.6658C398.516 35.2909 400.16 35.6025 401.351 35.5469C402.542 35.4912 407.216 33.2102 410.352 30.6976V28.283C410.352 28.283 407.064 30.8856 404.634 31.9182C402.204 32.9507 402.234 33.6554 398.741 32.9155C395.248 32.1758 386.44 29.7256 386.44 29.7256Z" fill="#F9B200"/>
<path fill-rule="evenodd" clip-rule="evenodd" d="M386.739 56.9182L395.636 60.7651C395.636 60.7651 399.054 62.4907 401.349 62.2271C403.643 61.9636 410.687 56.2927 410.687 56.2927L410.752 58.7481C410.752 58.7481 404.923 63.6385 402.948 64.1449C400.973 64.6511 400.072 64.6344 398.712 64.1906C397.354 63.7467 386.739 59.0808 386.739 59.0808V56.9182Z" fill="#F9B200"/>
<path d="M410.986 61.4137C410.674 59.3671 410.743 57.2994 410.651 55.2396C410.134 43.6506 410.414 32.0558 410.346 20.463C410.346 20.463 410.293 18.0614 409.862 18.1045L396.556 17.0182C393.898 18.0683 389.427 19.5372 386.732 20.4611C386.178 20.6522 385.958 20.5396 386.025 21.0693C386.459 24.5235 386.401 28.5479 386.475 32.0021C386.727 43.5894 386.571 55.1841 386.571 66.7348C386.946 66.8304 387.177 66.8495 387.372 66.9432C391.314 68.8272 395.019 71.2115 399.245 72.5129C400.494 72.8995 401.345 72.9558 402.502 72.1821C405.641 70.082 408.627 67.8022 411.468 65.3137C411.061 63.9451 411.237 62.6531 410.986 61.4137" stroke="#212348" stroke-width="0.5" stroke-linecap="round" stroke-linejoin="round"/>
<path d="M401.35 64.6407C401.35 66.7066 401.351 68.7726 401.353 70.8385C401.354 71.4362 401.239 72.0503 401.511 72.626" stroke="#212348" stroke-width="0.5" stroke-linecap="round" stroke-linejoin="round"/>
<path d="M401.351 35.5469C401.348 38.7115 401.348 42.9734 401.348 46.139C401.348 51.5011 401.347 56.7756 401.349 62.1386" stroke="#212348" stroke-width="0.5" stroke-linecap="round" stroke-linejoin="round"/>
<path d="M386.025 21.0693C387.043 21.2855 390.899 22.2495 391.877 22.5918C391.877 22.5918 393.514 22.9801 395.396 23.1915C397.278 23.4029 399.75 23.7661 401.632 23.6973C401.878 26.4878 401.378 29.2365 401.358 32.0004C401.355 32.3777 401.353 32.755 401.351 33.1325" stroke="#212348" stroke-width="0.5" stroke-linecap="round" stroke-linejoin="round"/>
<path d="M409.862 18.3514C408.21 19.7228 406.296 20.6485 404.4 21.6C403.459 22.0735 402.328 22.8653 401.632 23.6973" stroke="#212348" stroke-width="0.5" stroke-linecap="round" stroke-linejoin="round"/>
<path d="M386.44 29.7256C386.44 29.7256 398.411 33.4597 401.351 33.1321C404.291 32.8047 410.352 28.283 410.352 28.283" stroke="#212348" stroke-width="0.5" stroke-linecap="round" stroke-linejoin="round"/>
<path d="M386.44 32.1402C386.44 32.1402 398.411 35.8743 401.351 35.5469C404.291 35.2195 410.352 30.6978 410.352 30.6978" stroke="#212348" stroke-width="0.5" stroke-linecap="round" stroke-linejoin="round"/>
<path d="M395.574 43.0638C395.597 43.1113 395.654 43.3488 395.704 43.5857C395.789 44.0006 395.867 44.4182 395.959 44.8323C396.044 45.2246 396.174 45.6064 396.198 46.0164C396.211 46.2542 396.082 46.5619 395.966 46.766L395.959 46.7761L395.883 46.8983C395.75 47.1244 395.627 47.3046 395.453 47.4941C395.388 47.5665 395.307 47.6083 395.204 47.6214C394.999 47.6485 394.796 47.6552 394.591 47.6433C394.551 47.6405 394.508 47.6377 394.47 47.6401C394.376 47.6463 393.99 47.6131 393.896 47.6163" stroke="#212348" stroke-width="0.5" stroke-linecap="round"/>
<path d="M398.865 45.0703C398.875 45.3625 398.883 45.335 398.848 45.4776C398.821 45.5775 398.682 45.6662 398.596 45.7111C398.232 45.8983 397.871 46.0878 397.488 46.2372C397.003 46.4295 396.713 46.519 396.388 46.6513L395.983 46.7915" stroke="#212348" stroke-width="0.5" stroke-linecap="round" stroke-linejoin="bevel"/>
<path d="M396.034 40.1087C396.442 40.1129 396.798 40.1664 397.207 40.2181C397.364 40.2384 397.565 40.2923 397.724 40.3434C397.769 40.3579 397.815 40.3691 397.861 40.4041C397.958 40.3309 398.026 40.233 398.12 40.1628C398.232 40.0799 398.343 40.0642 398.466 40.1189C398.59 40.1728 398.704 40.2446 398.785 40.3554C398.86 40.4586 398.86 40.5853 398.855 40.7036C398.845 40.8804 398.788 41.0409 398.655 41.1659C398.555 41.2585 398.463 41.3606 398.358 41.4447C398.316 41.4799 398.313 41.5179 398.323 41.5463C398.45 41.9372 398.724 43.1103 398.865 45.0702" stroke="#212348" stroke-width="0.5" stroke-linecap="round"/>
<path d="M390.258 40.8514C390.127 40.7046 389.959 40.5767 389.858 40.4043C389.758 40.2311 389.722 40.0779 389.856 39.9065C390.007 39.711 390.158 39.5363 390.424 39.493C390.559 39.4711 390.649 39.4926 390.726 39.5978C390.819 39.7235 390.91 39.8068 391.096 39.8118C391.347 39.8184 391.6 39.8398 391.851 39.8579C392.295 39.8882 392.737 39.9238 393.178 39.9502C393.64 39.9783 395.574 40.0733 396.034 40.1087" stroke="#212348" stroke-width="0.5" stroke-linecap="round"/>
<path d="M395.574 43.0639C395.512 42.9518 395.456 42.8279 395.351 42.7501C395.22 42.653 395.073 42.6413 394.927 42.6093C394.534 42.5233 394.138 42.5484 393.743 42.5498C393.603 42.55 393.499 42.6188 393.402 42.7288C393.16 43.0017 393.083 43.3456 392.975 43.6771C392.874 43.99 392.777 44.3033 392.678 44.6163C392.579 44.9304 392.464 45.2387 392.387 45.5581C392.347 45.7327 392.349 45.9213 392.417 46.1023C392.503 46.337 392.609 46.5941 392.741 46.8141C392.773 46.87 392.808 46.9241 392.845 46.9742C392.933 47.0862 393.104 47.2863 393.203 47.3575C393.234 47.3899 393.301 47.4225 393.352 47.4526C393.525 47.555 393.702 47.6192 393.896 47.6163" stroke="#212348" stroke-width="0.5"/>
<path d="M389.9 42.1601C389.835 42.3407 389.453 44.0317 389.409 44.2165C389.357 44.4377 389.313 44.6616 389.303 44.8909C389.291 45.1264 389.358 45.2961 389.563 45.4329C389.994 45.7215 390.578 46.0415 390.878 46.1678C391.464 46.4115 392.381 46.748 392.71 46.8323" stroke="#212348" stroke-width="0.5" stroke-linecap="round"/>
<path d="M390.26 40.8514C390.198 41.0589 390.126 41.2641 390.075 41.4752C390.02 41.7045 389.953 41.9306 389.9 42.16" stroke="#212348" stroke-width="0.5" stroke-linecap="round"/>
<path fill-rule="evenodd" clip-rule="evenodd" d="M394.255 47.1547C394.596 47.1714 394.585 47.2143 394.695 47.1387C394.923 46.9858 395.136 46.7362 395.325 46.5508C395.396 46.4806 395.544 46.3418 395.54 46.2127C395.532 45.9764 395.571 45.8638 395.562 45.6212C395.556 45.4549 395.529 45.428 395.361 45.4002C395.051 45.3475 394.738 45.2948 394.426 45.2659C393.969 45.2224 394.218 45.2218 393.706 45.2317C393.577 45.2343 393.447 45.2103 393.314 45.2343C393.21 45.2536 393.168 45.3043 393.15 45.3942C393.098 45.6456 393.063 45.8976 393.055 46.1558C393.053 46.2453 393.099 46.306 393.158 46.3581C393.412 46.5814 393.668 46.8016 393.924 47.0218C393.968 47.0598 394.017 47.1465 394.255 47.1547Z" stroke="#212348" stroke-width="0.5" stroke-linecap="round"/>
<path fill-rule="evenodd" clip-rule="evenodd" d="M396.168 42.743C396.255 42.8034 396.266 42.9049 396.26 43.0047C396.255 43.1054 396.195 43.1801 396.084 43.1917C395.953 43.2046 395.857 43.1499 395.787 43.0151C395.702 43.1123 395.628 43.1927 395.665 43.3468L395.612 43.1209C395.642 43.0821 395.757 42.9725 395.761 42.9295C395.792 42.7102 395.993 42.622 396.168 42.743Z" fill="#212348"/>
<path fill-rule="evenodd" clip-rule="evenodd" d="M393.283 42.8553L393.25 42.9011C393.23 42.8775 393.152 42.8107 393.108 42.7985C393.101 42.8927 393.022 42.9467 392.953 42.9651C392.857 42.9907 392.764 42.9919 392.679 42.9359C392.6 42.8813 392.592 42.7775 392.607 42.6909C392.665 42.3799 393.123 42.4887 393.115 42.6943C393.112 42.7753 393.185 42.7579 393.283 42.8553Z" fill="#212348"/>
<path d="M386.576 56.8534C386.576 56.8534 398.249 62.4885 401.188 62.1609C404.128 61.8335 410.524 56.228 410.524 56.228" stroke="#212348" stroke-width="0.5" stroke-linecap="round" stroke-linejoin="round"/>
<path d="M386.576 59.0163C386.576 59.0163 398.249 64.9032 401.188 64.5757C404.128 64.2481 410.589 58.6834 410.589 58.6834" stroke="#212348" stroke-width="0.5" stroke-linecap="round" stroke-linejoin="round"/>
<path d="M386.468 31.6305L387.713 30.7179L388.382 32.2584L389.44 31.2577L390.336 32.7868L391.399 31.6504L392.128 33.3873L393.337 32.1752L393.97 33.8937L395.095 32.7196L395.906 34.3484L397.176 32.9959L398.021 34.8715L398.887 33.2676L399.792 35.0501L400.63 33.4649L401.634 34.9405L402.307 33.2628L403.16 34.5777L403.743 32.874L404.758 33.7696L405.308 32.1641L406.355 32.8521L406.83 31.072L407.705 31.9181L408.268 30.2603L409.065 30.8864L409.453 29.6415L410.346 30.3188" stroke="#212348" stroke-width="0.5" stroke-linecap="round" stroke-linejoin="round"/>
<path d="M386.739 58.7794L387.984 57.8665L388.579 59.4771L389.656 58.6835L390.352 60.291L391.492 59.4938L392.198 60.966L393.299 60.2747L393.914 61.7326L395.177 61.0937L395.906 62.7155L397.218 61.8635L397.979 63.5181L398.887 62.4725L399.84 63.9276L400.63 62.6698L401.573 63.9113L402.307 62.4677L403.435 63.1742L403.856 61.7161L404.876 62.2499L405.345 60.7982L406.329 61.3247L406.836 59.7011L407.92 60.1108L408.268 58.6334L409.183 59.1114L409.559 57.6769L410.589 58.2269" stroke="#212348" stroke-width="0.5" stroke-linecap="round" stroke-linejoin="round"/>
<path d="M420.452 59.0604C420.061 54.8323 420.339 49.6789 420.291 45.4468C420.25 41.9681 420.337 38.4588 420.149 35.0171C419.884 30.2025 419.977 25.3817 419.684 20.566C419.3 14.3273 419.59 8.04783 419.59 1.78464" stroke="#212348" stroke-width="0.6776" stroke-linecap="round" stroke-linejoin="round"/>
<path d="M411.083 61.4917C412.571 61.118 419.161 59.2448 420.452 59.0605" stroke="#212348" stroke-width="0.6776" stroke-linecap="round" stroke-linejoin="round"/>
<path d="M451.915 61.6238C444.33 61.2306 436.779 61.9349 429.161 62.6147C428.936 59.3092 428.695 56.2942 428.539 53.2742C428.35 49.5602 427.86 45.8697 427.807 42.1422C427.784 40.5228 427.715 38.8949 427.673 37.2713C427.608 34.7775 427.453 32.2816 427.519 29.792C427.691 23.1746 427.112 16.5755 427.07 9.9612C427.05 7.02207 426.9 4.04091 426.774 1.13959C417.824 1.74978 408.961 1.34131 400.001 2.12446C400.73 6.52651 399.551 12.7881 400.001 17.0182" stroke="#212348" stroke-width="0.6776" stroke-linecap="round" stroke-linejoin="round"/>
<path d="M428.497 63.9475C424.482 63.8131 415.441 64.4601 411.426 64.2829" stroke="#212348" stroke-width="0.6776" stroke-linecap="round" stroke-linejoin="round"/>
<path d="M428.497 63.9477C432.02 65.3605 436.859 68.0651 439.99 70.3215C439.99 70.3215 418.101 71.4357 403.982 71.1708" stroke="#212348" stroke-width="0.6776" stroke-linecap="round" stroke-linejoin="round"/>
<path d="M418.095 27.8754C417.025 28.4693 413.66 29.2196 412.541 29.6374C412.565 29.9956 412.451 30.7011 413.041 30.4513C414.918 29.6547 417.018 29.4521 418.941 28.2973C417.928 27.9472 417.746 27.0299 416.945 27.4158" stroke="#212348" stroke-width="0.6776" stroke-linecap="round" stroke-linejoin="round"/>
<rect x="412.5" y="104.5" width="13" height="13" stroke="#7F7C89" stroke-opacity="0.572351"/>
<rect x="17.5" y="105.5" width="13" height="13" stroke="#7F7C89" stroke-opacity="0.572351"/>
<path fill-rule="evenodd" clip-rule="evenodd" d="M24.1208 14.1952L14.1313 17.5209L14.1424 17.8787L1.19824 16.796C1.33899 17.902 1.47804 45.9887 1.47804 45.9887L1.60137 58.8448L14.6517 59.4003C14.6517 59.4003 16.9902 60.1679 19.6487 61.7179C22.3071 63.2677 26.2973 64.7848 27.2948 64.9049C28.2924 65.0253 28.5884 64.9779 28.5117 64.5401C28.4351 64.1023 28.445 52.8115 28.445 52.8115L28.4435 32.1672C28.4435 32.1672 28.4501 20.483 28.9066 20.0545C29.363 19.6265 36.6 15.4073 36.6 15.4073L24.1208 14.1952Z" fill="#B17F48"/>
<path fill-rule="evenodd" clip-rule="evenodd" d="M36.5999 15.4074C36.5999 15.4074 33.5768 17.227 32.2061 17.9155C30.8354 18.604 28.7789 19.5177 28.7272 20.4705C28.6754 21.423 28.4449 31.6905 28.4449 31.6905L28.4278 58.1638V64.36C28.4278 64.36 28.3983 65.038 29.1472 64.5733C29.8957 64.1086 36.4986 59.2691 36.4986 59.2691L37.8519 57.9686C37.8519 57.9686 37.3494 55.3101 37.3249 54.0061C37.3005 52.7022 37.0708 46.1087 37.0708 46.1087L36.85 31.4522L36.7581 16.6514C36.7581 16.6514 36.7054 15.727 36.5999 15.4074Z" fill="#946C3E"/>
<path fill-rule="evenodd" clip-rule="evenodd" d="M28.4481 31.0426C29.5601 30.9921 33.9229 28.918 36.85 26.6335V24.4378C36.85 24.4378 33.7812 26.8041 31.5128 27.7431C29.2445 28.682 28.4481 28.8472 28.4481 28.8472V31.0426Z" fill="#F9B200"/>
<path fill-rule="evenodd" clip-rule="evenodd" d="M28.4459 55.3018C30.5876 55.062 37.162 49.9058 37.162 49.9058L37.2227 52.1386C37.2227 52.1386 30.2904 57.0358 28.4464 57.4962L28.4459 55.3018Z" fill="#F9B200"/>
<path d="M37.4416 54.562C37.1507 52.7012 37.215 50.8211 37.1284 48.9482C36.646 38.411 36.9079 27.8683 36.8443 17.3273C36.8443 17.3273 36.7947 15.1438 36.3925 15.1831L23.9724 14.1953C21.491 15.15 17.3172 16.4858 14.8017 17.3256C14.2844 17.4996 14.0791 17.3971 14.1425 17.8787C14.5475 21.0195 14.4929 24.6786 14.5625 27.8194C14.7971 38.3552 14.6518 48.8977 14.6518 59.4003C15.0019 59.4873 15.2174 59.5047 15.399 59.5898C19.0794 61.3031 22.5374 63.4708 26.4819 64.6543C27.6482 65.0056 28.4424 65.0568 29.5224 64.3533C32.4526 62.4437 35.2395 60.3708 37.8916 58.1082C37.5115 56.8639 37.6757 55.689 37.4416 54.562" stroke="#212348" stroke-width="0.5" stroke-linecap="round" stroke-linejoin="round"/>
<path d="M28.4463 57.4963C28.447 59.3747 28.448 61.2531 28.4494 63.1316C28.4501 63.6752 28.3441 64.2333 28.5946 64.7569" stroke="#212348" stroke-width="0.5" stroke-linecap="round" stroke-linejoin="round"/>
<path d="M28.448 31.0426C28.4449 33.92 28.4449 37.7951 28.4449 40.6735C28.4449 45.549 28.4444 50.3449 28.4459 55.2213" stroke="#212348" stroke-width="0.5" stroke-linecap="round" stroke-linejoin="round"/>
<path d="M14.1426 17.8787C15.092 18.0753 18.6919 18.9518 19.6046 19.263C19.6046 19.263 21.1327 19.6162 22.8896 19.8083C24.6465 20.0004 26.954 20.331 28.7104 20.2683C28.9399 22.8056 28.4732 25.3046 28.4548 27.8179C28.4521 28.1611 28.45 28.5041 28.448 28.8472" stroke="#212348" stroke-width="0.5" stroke-linecap="round" stroke-linejoin="round"/>
<path d="M36.3925 15.4074C34.8502 16.6543 33.0642 17.496 31.2943 18.3614C30.4152 18.7918 29.3601 19.5117 28.7103 20.2681" stroke="#212348" stroke-width="0.5" stroke-linecap="round" stroke-linejoin="round"/>
<path d="M36.85 26.6335C36.85 26.6335 31.1922 30.7447 28.4481 31.0426V28.847C31.1922 28.5493 36.85 24.4379 36.85 24.4379" stroke="#212348" stroke-width="0.5" stroke-linecap="round" stroke-linejoin="round"/>
<path d="M37.0708 52.0796C37.0708 52.0796 31.0403 57.1393 28.2963 57.4372V55.2416C31.0403 54.9439 37.0099 49.847 37.0099 49.847" stroke="#212348" stroke-width="0.5" stroke-linecap="round" stroke-linejoin="round"/>
<path d="M28.7122 30.4911L29.3402 28.9657L30.1365 30.1613L30.6807 28.6122L31.6279 29.4266L32.1418 27.9669L33.1193 28.5925L33.5625 26.9738L34.3787 27.7431L34.904 26.2357L35.6483 26.8051L36.0111 25.6731L36.8444 26.2889" stroke="#212348" stroke-width="0.5" stroke-linecap="round" stroke-linejoin="round"/>
<path d="M28.6552 56.833L29.34 55.5204L30.3932 56.1626L30.7864 54.8371L31.7385 55.3223L32.1762 54.0025L33.0942 54.4813L33.5672 53.0052L34.58 53.3774L34.904 52.034L35.7589 52.4689L36.1093 51.1644L37.0708 51.6646" stroke="#212348" stroke-width="0.5" stroke-linecap="round" stroke-linejoin="round"/>
<path d="M23.6901 19.8996V55.2212L14.6517 59.4003L1.60137 58.8448L1.19824 16.796L14.1427 17.8787" stroke="#212348" stroke-width="0.5" stroke-linecap="round" stroke-linejoin="round"/>
<path fill-rule="evenodd" clip-rule="evenodd" d="M14.394 25.905L14.1902 53.8153L23.5809 56.1182L27.1218 52.3449L26.777 33.3214L26.5772 26.9217L14.394 25.905Z" fill="#FEFEFE"/>
<path fill-rule="evenodd" clip-rule="evenodd" d="M14.3766 26.6869C14.3766 26.6869 14.1476 22.8059 14.6837 22.59C15.2196 22.3741 16.5446 21.6245 20.2628 21.8316C23.9809 22.039 25.99 23.2341 25.99 23.2341C25.99 23.2341 26.456 22.9322 26.4996 24.3936C26.5433 25.8549 26.611 27.9671 26.611 27.9671C26.611 27.9671 18.1637 26.211 14.3766 26.6869Z" fill="#7F7C89"/>
<path fill-rule="evenodd" clip-rule="evenodd" d="M14.2063 54.8099C14.2063 54.8099 14.156 60.6568 14.8917 61.0588C15.6276 61.4606 19.8811 61.8372 21.4516 61.8169C23.0222 61.7964 26.5102 61.9754 26.6794 61.0491C26.849 60.1225 27.1101 55.4035 27.1159 53.4968C27.1215 51.5902 27.1159 50.9549 27.1159 50.9549C27.1159 50.9549 21.4392 55.374 14.1705 52.5735L14.2063 54.8099Z" fill="#7F7C89"/>
<path d="M23.581 22.6549C22.7336 22.4619 21.7733 22.327 20.8555 22.1702C19.8798 22.0036 18.8941 22.1413 17.9753 22.1921C17.4467 22.2209 16.7972 22.4647 17.6554 22.6492C18.976 22.9325 20.3629 23.2021 22.1365 23.0417C22.9948 22.9447 21.413 22.428 20.3716 22.4633C19.6331 22.4886 19.3702 22.6766 20.6352 22.7972" stroke="#212348" stroke-width="0.5" stroke-linecap="round" stroke-linejoin="round"/>
<path d="M16.0374 22.5099C16.6487 23.0695 18.4472 23.1746 19.9163 23.3049C21.087 23.4084 22.4229 23.4689 23.7433 23.4353C25.2465 23.3967 25.1435 23.09 23.581 22.6548" stroke="#212348" stroke-width="0.5" stroke-linecap="round" stroke-linejoin="round"/>
<path d="M14.4964 22.6765C14.3774 23.4446 13.6775 59.7726 14.6548 60.8846C15.6318 61.9968 25.0455 62.0476 26.4902 61.3867C27.9344 60.7259 26.4433 24.6515 26.4897 23.7661C26.5006 23.5633 26.2578 23.4041 25.9901 23.2342C24.6356 22.377 22.3573 21.9156 19.2469 21.8374C17.0973 21.7833 15.6439 22.1244 14.4964 22.6765C16.5275 23.4232 17.0494 23.775 20.0423 23.9036C21.3228 23.9585 24.5166 24.1439 26.4897 23.7661" stroke="#212348" stroke-width="0.5" stroke-linecap="round" stroke-linejoin="round"/>
<rect x="121.5" y="104.5" width="13" height="13" stroke="#7F7C89" stroke-opacity="0.572351"/>
<path fill-rule="evenodd" clip-rule="evenodd" d="M120.066 21.6504L115.088 23.3496C115.088 23.3496 113.525 23.4681 113.616 24.1925C113.707 24.9166 113.883 31.6255 113.883 31.6255L113.948 45.9454L113.945 51.2555C113.945 51.2555 115.456 51.7582 117.175 52.7732C118.894 53.7883 121.473 54.7817 122.118 54.8606C122.763 54.9393 122.954 54.9083 122.904 54.6216C122.855 54.3349 122.861 46.9404 122.861 46.9404L122.86 33.4204C122.86 33.4204 122.864 25.7683 123.159 25.4878C123.455 25.2073 128.133 22.4443 128.133 22.4443L120.066 21.6504Z" fill="#B17F48"/>
<path fill-rule="evenodd" clip-rule="evenodd" d="M128.133 22.4443C128.133 22.4443 126.178 23.636 125.292 24.0869C124.406 24.5377 123.077 25.1363 123.043 25.7601C123.01 26.3839 122.861 33.1083 122.861 33.1083L122.85 50.4456V54.5035C122.85 54.5035 122.831 54.9477 123.315 54.6433C123.799 54.3389 128.067 51.1695 128.067 51.1695L128.942 50.3177C128.942 50.3177 128.617 48.5768 128.601 47.7227C128.586 46.8689 128.437 42.5508 128.437 42.5508L128.294 32.9521L128.235 23.259C128.235 23.259 128.201 22.6536 128.133 22.4443Z" fill="#946C3E"/>
<path fill-rule="evenodd" clip-rule="evenodd" d="M113.866 29.2174V30.6553C113.866 30.6553 117.59 31.7871 119.371 32.1592C121.152 32.5315 122.144 32.717 122.863 32.6838C123.582 32.6507 126.402 31.2924 128.294 29.7962V28.3584C128.294 28.3584 126.31 29.9082 124.844 30.5229C123.378 31.1379 123.395 31.5574 121.288 31.117C119.181 30.6765 113.866 29.2174 113.866 29.2174Z" fill="#F9B200"/>
<path fill-rule="evenodd" clip-rule="evenodd" d="M114.046 45.4099L119.414 47.7008C119.414 47.7008 121.477 48.7282 122.862 48.5712C124.246 48.4143 128.496 45.0374 128.496 45.0374L128.535 46.4997C128.535 46.4997 125.019 49.4117 123.827 49.7133C122.635 50.0147 122.091 50.0048 121.271 49.7404C120.451 49.4761 114.046 46.6978 114.046 46.6978V45.4099Z" fill="#F9B200"/>
<path d="M128.677 48.0868C128.489 46.8681 128.53 45.637 128.474 44.4103C128.162 37.5093 128.332 30.6049 128.291 23.7017C128.291 23.7017 128.259 22.2716 127.999 22.2974L119.97 21.6504C118.366 22.2758 115.668 23.1504 114.042 23.7006C113.707 23.8145 113.575 23.7473 113.616 24.0628C113.877 26.1196 113.842 28.5161 113.887 30.5731C114.039 37.4729 113.945 44.3772 113.945 51.2555C114.171 51.3125 114.31 51.3237 114.428 51.3795C116.807 52.5014 119.042 53.9212 121.592 54.6962C122.346 54.9264 122.859 54.96 123.557 54.4992C125.452 53.2487 127.253 51.891 128.968 50.4093C128.722 49.5943 128.828 48.8249 128.677 48.0868" stroke="#212348" stroke-width="0.5" stroke-linecap="round" stroke-linejoin="round"/>
<path d="M122.862 50.0085C122.862 51.2387 122.863 52.469 122.864 53.6991C122.864 54.055 122.795 54.4207 122.959 54.7635" stroke="#212348" stroke-width="0.5" stroke-linecap="round" stroke-linejoin="round"/>
<path d="M122.863 32.6838C122.861 34.5683 122.861 37.1062 122.861 38.9911C122.861 42.1842 122.861 45.325 122.862 48.5187" stroke="#212348" stroke-width="0.5" stroke-linecap="round" stroke-linejoin="round"/>
<path d="M113.616 24.0628C114.229 24.1914 116.557 24.7654 117.146 24.9694C117.146 24.9694 118.134 25.2006 119.27 25.3265C120.406 25.4524 121.897 25.6687 123.033 25.6276C123.181 27.2894 122.879 28.926 122.867 30.572C122.866 30.7967 122.864 31.0214 122.863 31.246" stroke="#212348" stroke-width="0.5" stroke-linecap="round" stroke-linejoin="round"/>
<path d="M127.999 22.4443C127.001 23.261 125.847 23.8122 124.703 24.3788C124.135 24.6607 123.453 25.1322 123.033 25.6277" stroke="#212348" stroke-width="0.5" stroke-linecap="round" stroke-linejoin="round"/>
<path d="M113.866 29.2174C113.866 29.2174 121.089 31.4409 122.863 31.2459C124.637 31.051 128.294 28.3584 128.294 28.3584" stroke="#212348" stroke-width="0.5" stroke-linecap="round" stroke-linejoin="round"/>
<path d="M113.866 30.6552C113.866 30.6552 121.089 32.8788 122.863 32.6837C124.637 32.4889 128.294 29.7962 128.294 29.7962" stroke="#212348" stroke-width="0.5" stroke-linecap="round" stroke-linejoin="round"/>
<path d="M119.377 37.16C119.391 37.1883 119.426 37.3297 119.455 37.4709C119.507 37.7178 119.554 37.9666 119.609 38.2132C119.661 38.4467 119.739 38.6741 119.754 38.9183C119.762 39.0598 119.684 39.243 119.614 39.3646L119.609 39.3705L119.563 39.4434C119.483 39.578 119.409 39.6854 119.304 39.7981C119.265 39.8412 119.216 39.8661 119.154 39.8739C119.03 39.8902 118.908 39.8941 118.784 39.8871C118.76 39.8853 118.734 39.8836 118.711 39.885C118.654 39.8887 118.422 39.869 118.364 39.8709" stroke="#212348" stroke-width="0.5" stroke-linecap="round"/>
<path d="M121.363 38.3549C121.369 38.5288 121.374 38.5124 121.352 38.5974C121.336 38.6568 121.252 38.7097 121.201 38.7364C120.981 38.8478 120.763 38.9608 120.532 39.0496C120.239 39.1642 120.064 39.2174 119.868 39.2962L119.624 39.3797" stroke="#212348" stroke-width="0.5" stroke-linecap="round" stroke-linejoin="bevel"/>
<path d="M119.655 35.4003C119.901 35.4028 120.115 35.4347 120.362 35.4655C120.457 35.4776 120.579 35.5097 120.674 35.5402C120.702 35.5486 120.729 35.5554 120.757 35.5762C120.816 35.5326 120.857 35.4742 120.913 35.4325C120.981 35.3832 121.048 35.3737 121.122 35.4064C121.197 35.4384 121.266 35.4813 121.315 35.5473C121.36 35.6086 121.36 35.6841 121.357 35.7546C121.351 35.8598 121.316 35.9554 121.236 36.0299C121.176 36.085 121.121 36.1458 121.057 36.1959C121.031 36.2168 121.03 36.2396 121.036 36.2562C121.113 36.4892 121.277 37.1877 121.363 38.3549" stroke="#212348" stroke-width="0.5" stroke-linecap="round"/>
<path d="M116.169 35.8425C116.091 35.7552 115.989 35.679 115.928 35.5763C115.868 35.4732 115.846 35.3819 115.927 35.28C116.018 35.1635 116.109 35.0594 116.27 35.0338C116.351 35.0207 116.405 35.0334 116.452 35.0962C116.508 35.171 116.563 35.2206 116.675 35.2235C116.827 35.2274 116.979 35.2401 117.131 35.2509C117.398 35.2691 117.666 35.2903 117.932 35.306C118.21 35.3226 119.377 35.3793 119.655 35.4004" stroke="#212348" stroke-width="0.5" stroke-linecap="round"/>
<path d="M119.377 37.16C119.339 37.0934 119.306 37.0195 119.243 36.9732C119.164 36.9153 119.075 36.9084 118.987 36.8893C118.75 36.8381 118.511 36.8531 118.272 36.8539C118.188 36.854 118.125 36.895 118.067 36.9606C117.921 37.123 117.874 37.3278 117.809 37.5252C117.748 37.7115 117.689 37.8981 117.63 38.0846C117.57 38.2716 117.5 38.4551 117.454 38.6453C117.43 38.7492 117.431 38.8616 117.472 38.9693C117.524 39.1091 117.588 39.2623 117.668 39.3932C117.687 39.4266 117.708 39.4587 117.73 39.4885C117.784 39.5552 117.887 39.6744 117.946 39.7169C117.965 39.7361 118.005 39.7556 118.037 39.7734C118.141 39.8344 118.248 39.8726 118.364 39.8709" stroke="#212348" stroke-width="0.5"/>
<path d="M115.953 36.6219C115.914 36.7293 115.684 37.7364 115.657 37.8464C115.626 37.9782 115.599 38.1115 115.593 38.248C115.586 38.3882 115.626 38.4894 115.75 38.5706C116.01 38.7426 116.363 38.9331 116.544 39.0084C116.897 39.1536 117.45 39.3539 117.649 39.404" stroke="#212348" stroke-width="0.5" stroke-linecap="round"/>
<path d="M116.169 35.8425C116.132 35.9661 116.089 36.0882 116.059 36.214C116.025 36.3506 115.985 36.4851 115.953 36.6219" stroke="#212348" stroke-width="0.5" stroke-linecap="round"/>
<path fill-rule="evenodd" clip-rule="evenodd" d="M118.581 39.596C118.787 39.6061 118.78 39.6316 118.847 39.5865C118.985 39.4954 119.113 39.3469 119.227 39.2364C119.27 39.1946 119.359 39.1119 119.356 39.035C119.351 38.8943 119.375 38.8273 119.37 38.6828C119.366 38.5839 119.35 38.5679 119.249 38.5512C119.061 38.52 118.873 38.4886 118.684 38.4712C118.409 38.4455 118.559 38.4451 118.25 38.4509C118.172 38.4525 118.094 38.4382 118.013 38.4524C117.951 38.4639 117.925 38.4942 117.914 38.5476C117.883 38.6973 117.862 38.8474 117.857 39.0012C117.856 39.0546 117.884 39.0906 117.919 39.1216C118.072 39.2546 118.227 39.3857 118.381 39.517C118.408 39.5395 118.438 39.5911 118.581 39.596Z" stroke="#212348" stroke-width="0.5" stroke-linecap="round"/>
<path fill-rule="evenodd" clip-rule="evenodd" d="M119.506 37.1314C119.455 37.1893 119.41 37.2373 119.432 37.3292L119.4 37.1945C119.418 37.1713 119.488 37.1059 119.49 37.0802C119.509 36.9494 119.63 36.8969 119.736 36.969C119.788 37.005 119.795 37.0656 119.791 37.1251C119.788 37.1852 119.752 37.2298 119.685 37.2368C119.606 37.2444 119.548 37.2119 119.506 37.1314Z" fill="#212348"/>
<path fill-rule="evenodd" clip-rule="evenodd" d="M117.587 36.9389C117.622 36.7522 117.899 36.8175 117.895 36.941C117.893 36.9895 117.937 36.979 117.996 37.0375L117.976 37.0649C117.964 37.0509 117.917 37.0108 117.89 37.0034C117.886 37.0599 117.838 37.0922 117.796 37.1033C117.738 37.1187 117.682 37.1194 117.631 37.0859C117.583 37.0531 117.578 36.9908 117.587 36.9389Z" fill="#212348"/>
<path d="M113.948 45.3714C113.948 45.3714 120.991 48.727 122.765 48.532C124.539 48.3369 128.398 44.999 128.398 44.999" stroke="#212348" stroke-width="0.5" stroke-linecap="round" stroke-linejoin="round"/>
<path d="M113.948 46.6593C113.948 46.6593 120.991 50.1648 122.765 49.9699C124.539 49.7748 128.437 46.4611 128.437 46.4611" stroke="#212348" stroke-width="0.5" stroke-linecap="round" stroke-linejoin="round"/>
<path d="M113.883 30.3518L114.634 29.8083L115.038 30.7256L115.676 30.1297L116.216 31.0401L116.858 30.3636L117.298 31.3979L118.027 30.6761L118.41 31.6994L119.088 31.0001L119.577 31.9702L120.344 31.1648L120.853 32.2817L121.376 31.3266L121.922 32.388L122.428 31.444L123.034 32.3227L123.44 31.3236L123.954 32.1066L124.306 31.0922L124.919 31.6255L125.251 30.6695L125.882 31.0792L126.169 30.0192L126.697 30.523L127.036 29.5358L127.517 29.9086L127.752 29.1672L128.29 29.5707" stroke="#212348" stroke-width="0.5" stroke-linecap="round" stroke-linejoin="round"/>
<path d="M114.046 46.5183L114.797 45.9747L115.156 46.9337L115.806 46.461L116.226 47.4184L116.914 46.9437L117.34 47.8203L118.004 47.4087L118.376 48.2768L119.138 47.8964L119.577 48.862L120.369 48.3548L120.828 49.3401L121.376 48.7174L121.952 49.5839L122.428 48.8349L122.997 49.5742L123.44 48.7146L124.12 49.1353L124.375 48.2671L124.99 48.5849L125.273 47.7204L125.866 48.034L126.172 47.0673L126.827 47.3111L127.036 46.4312L127.589 46.716L127.815 45.8618L128.437 46.1893" stroke="#212348" stroke-width="0.5" stroke-linecap="round" stroke-linejoin="round"/>
<path fill-rule="evenodd" clip-rule="evenodd" d="M111.607 24.2899L106.629 25.9891C106.629 25.9891 105.066 26.1076 105.157 26.8319C105.247 27.5561 105.424 34.2649 105.424 34.2649L105.489 48.5848L105.486 53.8949C105.486 53.8949 106.997 54.3976 108.716 55.4126C110.435 56.4277 113.014 57.4212 113.659 57.5C114.303 57.5787 114.495 57.5477 114.445 57.2611C114.396 56.9743 114.402 49.5798 114.402 49.5798L114.401 36.0598C114.401 36.0598 114.405 28.4078 114.7 28.1272C114.995 27.8467 119.673 25.0837 119.673 25.0837L111.607 24.2899Z" fill="#B17F48"/>
<path fill-rule="evenodd" clip-rule="evenodd" d="M119.673 25.0837C119.673 25.0837 117.719 26.2754 116.833 26.7263C115.947 27.1771 114.618 27.7757 114.584 28.3995C114.551 29.0234 114.402 35.7477 114.402 35.7477L114.391 53.085V57.1429C114.391 57.1429 114.372 57.5871 114.856 57.2828C115.34 56.9783 119.608 53.809 119.608 53.809L120.483 52.9572C120.483 52.9572 120.158 51.2162 120.142 50.3623C120.126 49.5083 119.978 45.1902 119.978 45.1902L119.835 35.5915L119.776 25.8984C119.776 25.8984 119.742 25.2931 119.673 25.0837Z" fill="#946C3E"/>
<path fill-rule="evenodd" clip-rule="evenodd" d="M105.407 31.8568V33.2947C105.407 33.2947 109.131 34.4265 110.912 34.7986C112.693 35.1709 113.685 35.3564 114.404 35.3232C115.123 35.2901 117.943 33.9318 119.835 32.4358V30.9978C119.835 30.9978 117.851 32.5476 116.385 33.1624C114.919 33.7773 114.936 34.1968 112.829 33.7564C110.722 33.3159 105.407 31.8568 105.407 31.8568Z" fill="#F9B200"/>
<path fill-rule="evenodd" clip-rule="evenodd" d="M105.587 48.0493L110.955 50.3402C110.955 50.3402 113.018 51.3676 114.403 51.2106C115.787 51.0539 120.037 47.677 120.037 47.677L120.076 49.1391C120.076 49.1391 116.56 52.0511 115.368 52.3528C114.176 52.6542 113.632 52.6443 112.812 52.3798C111.992 52.1155 105.587 49.3372 105.587 49.3372V48.0493Z" fill="#F9B200"/>
<path d="M120.218 50.7263C120.03 49.5076 120.071 48.2764 120.015 47.0499C119.703 40.1488 119.873 33.2443 119.832 26.3411C119.832 26.3411 119.8 24.9112 119.54 24.9368L111.511 24.29C109.907 24.9152 107.209 25.7899 105.583 26.34C105.249 26.4539 105.116 26.3867 105.157 26.7022C105.418 28.7591 105.383 31.1556 105.428 33.2125C105.58 40.1124 105.486 47.0167 105.486 53.8949C105.712 53.9519 105.851 53.9632 105.969 54.0191C108.348 55.1409 110.583 56.5606 113.133 57.3356C113.887 57.5658 114.4 57.5994 115.099 57.1386C116.993 55.8882 118.794 54.5305 120.509 53.0488C120.263 52.2337 120.369 51.4643 120.218 50.7263" stroke="#212348" stroke-width="0.5" stroke-linecap="round" stroke-linejoin="round"/>
<path d="M114.403 52.6479C114.403 53.8781 114.404 55.1084 114.405 56.3385C114.405 56.6945 114.336 57.0601 114.5 57.4029" stroke="#212348" stroke-width="0.5" stroke-linecap="round" stroke-linejoin="round"/>
<path d="M114.404 35.3232C114.402 37.2076 114.402 39.7456 114.402 41.6305C114.402 44.8236 114.402 47.9644 114.403 51.1581" stroke="#212348" stroke-width="0.5" stroke-linecap="round" stroke-linejoin="round"/>
<path d="M105.157 26.7022C105.77 26.8309 108.098 27.405 108.687 27.6088C108.687 27.6088 109.675 27.8401 110.811 27.966C111.946 28.0918 113.438 28.3081 114.574 28.2672C114.722 29.9288 114.42 31.5655 114.408 33.2115C114.407 33.4361 114.405 33.6608 114.404 33.8855" stroke="#212348" stroke-width="0.5" stroke-linecap="round" stroke-linejoin="round"/>
<path d="M119.54 25.0837C118.542 25.9004 117.388 26.4516 116.244 27.0182C115.676 27.3002 114.994 27.7716 114.574 28.2672" stroke="#212348" stroke-width="0.5" stroke-linecap="round" stroke-linejoin="round"/>
<path d="M105.407 31.8568C105.407 31.8568 112.63 34.0803 114.404 33.8853C116.178 33.6905 119.835 30.9978 119.835 30.9978" stroke="#212348" stroke-width="0.5" stroke-linecap="round" stroke-linejoin="round"/>
<path d="M105.407 33.2947C105.407 33.2947 112.63 35.5183 114.404 35.3232C116.178 35.1283 119.835 32.4358 119.835 32.4358" stroke="#212348" stroke-width="0.5" stroke-linecap="round" stroke-linejoin="round"/>
<path d="M110.918 39.7995C110.932 39.8276 110.967 39.9691 110.996 40.1103C111.048 40.3572 111.095 40.606 111.15 40.8526C111.202 41.0861 111.28 41.3135 111.295 41.5577C111.303 41.6991 111.225 41.8824 111.154 42.0039L111.15 42.0099L111.104 42.0827C111.024 42.2173 110.95 42.3248 110.845 42.4375C110.806 42.4806 110.757 42.5055 110.695 42.5133C110.571 42.5296 110.449 42.5335 110.325 42.5264C110.301 42.5248 110.275 42.523 110.252 42.5245C110.195 42.5281 109.962 42.5085 109.905 42.5103" stroke="#212348" stroke-width="0.5" stroke-linecap="round"/>
<path d="M112.904 40.9943C112.91 41.1682 112.915 41.1518 112.893 41.2368C112.877 41.2962 112.793 41.3492 112.742 41.3759C112.522 41.4873 112.304 41.6002 112.073 41.6892C111.78 41.8037 111.605 41.8568 111.409 41.9356L111.165 42.0192" stroke="#212348" stroke-width="0.5" stroke-linecap="round" stroke-linejoin="bevel"/>
<path d="M111.196 38.0397C111.442 38.0422 111.656 38.0741 111.903 38.1049C111.998 38.117 112.12 38.1491 112.216 38.1796C112.243 38.1881 112.27 38.1948 112.298 38.2157C112.357 38.1721 112.398 38.1137 112.454 38.0719C112.522 38.0226 112.589 38.0133 112.663 38.0458C112.738 38.0778 112.807 38.1208 112.856 38.1867C112.901 38.2481 112.901 38.3236 112.898 38.394C112.892 38.4994 112.857 38.5948 112.777 38.6693C112.717 38.7244 112.662 38.7852 112.598 38.8354C112.572 38.8563 112.571 38.879 112.577 38.8958C112.654 39.1286 112.818 39.8272 112.904 40.9943" stroke="#212348" stroke-width="0.5" stroke-linecap="round"/>
<path d="M107.71 38.4819C107.632 38.3946 107.53 38.3184 107.469 38.2157C107.409 38.1126 107.387 38.0214 107.468 37.9194C107.559 37.8029 107.65 37.6988 107.811 37.6732C107.892 37.6601 107.947 37.6728 107.993 37.7356C108.049 37.8104 108.104 37.86 108.216 37.8629C108.368 37.8668 108.52 37.8795 108.672 37.8903C108.939 37.9085 109.207 37.9297 109.473 37.9454C109.751 37.962 110.918 38.0187 111.196 38.0398" stroke="#212348" stroke-width="0.5" stroke-linecap="round"/>
<path d="M110.918 39.7995C110.88 39.7328 110.847 39.6589 110.784 39.6127C110.705 39.5547 110.616 39.5478 110.528 39.5287C110.291 39.4776 110.052 39.4926 109.813 39.4933C109.729 39.4934 109.666 39.5344 109.608 39.6C109.462 39.7624 109.415 39.9673 109.35 40.1645C109.289 40.3509 109.23 40.5375 109.171 40.7239C109.111 40.911 109.041 41.0945 108.995 41.2847C108.971 41.3886 108.973 41.5009 109.013 41.6088C109.065 41.7485 109.129 41.9017 109.209 42.0326C109.228 42.066 109.249 42.0981 109.271 42.1279C109.325 42.1946 109.428 42.3138 109.487 42.3563C109.506 42.3754 109.546 42.395 109.578 42.4128C109.682 42.4738 109.789 42.512 109.905 42.5103" stroke="#212348" stroke-width="0.5"/>
<path d="M107.494 39.2613C107.455 39.3687 107.225 40.3759 107.199 40.4858C107.167 40.6176 107.14 40.7509 107.134 40.8874C107.127 41.0276 107.167 41.1288 107.291 41.21C107.551 41.382 107.904 41.5725 108.085 41.6478C108.438 41.793 108.991 41.9933 109.19 42.0434" stroke="#212348" stroke-width="0.5" stroke-linecap="round"/>
<path d="M107.71 38.4819C107.673 38.6055 107.63 38.7277 107.6 38.8534C107.566 38.99 107.526 39.1245 107.494 39.2613" stroke="#212348" stroke-width="0.5" stroke-linecap="round"/>
<path fill-rule="evenodd" clip-rule="evenodd" d="M110.122 42.2354C110.328 42.2455 110.321 42.271 110.388 42.2259C110.526 42.1348 110.654 41.9863 110.768 41.8758C110.811 41.834 110.9 41.7513 110.897 41.6744C110.892 41.5338 110.916 41.4667 110.911 41.3222C110.907 41.2233 110.891 41.2073 110.79 41.1906C110.602 41.1594 110.414 41.128 110.225 41.1106C109.95 41.0849 110.1 41.0845 109.791 41.0903C109.713 41.0919 109.635 41.0776 109.554 41.0919C109.492 41.1033 109.466 41.1336 109.456 41.1871C109.424 41.3367 109.403 41.4868 109.398 41.6406C109.397 41.694 109.425 41.73 109.46 41.761C109.613 41.894 109.768 42.0251 109.922 42.1564C109.949 42.1789 109.979 42.2305 110.122 42.2354Z" stroke="#212348" stroke-width="0.5" stroke-linecap="round"/>
<path fill-rule="evenodd" clip-rule="evenodd" d="M111.277 39.6085C111.329 39.6445 111.336 39.7051 111.332 39.7646C111.329 39.8247 111.293 39.8692 111.226 39.8762C111.147 39.8839 111.089 39.8512 111.047 39.7708C110.996 39.8289 110.951 39.8767 110.973 39.9687L110.941 39.8339C110.959 39.8108 111.029 39.7455 111.031 39.7197C111.05 39.5889 111.171 39.5362 111.277 39.6085Z" fill="#212348"/>
<path fill-rule="evenodd" clip-rule="evenodd" d="M109.537 39.6769L109.518 39.7044C109.505 39.6902 109.458 39.6501 109.431 39.6429C109.427 39.6993 109.379 39.7316 109.337 39.7428C109.279 39.7581 109.223 39.7589 109.172 39.7253C109.124 39.6925 109.119 39.6301 109.128 39.5784C109.163 39.3917 109.44 39.4569 109.436 39.5803C109.434 39.6289 109.478 39.6185 109.537 39.6769Z" fill="#212348"/>
<path d="M105.489 48.0108C105.489 48.0108 112.532 51.3664 114.306 51.1714C116.08 50.9763 119.939 47.6384 119.939 47.6384" stroke="#212348" stroke-width="0.5" stroke-linecap="round" stroke-linejoin="round"/>
<path d="M105.489 49.2987C105.489 49.2987 112.532 52.8042 114.306 52.6093C116.08 52.4143 119.978 49.1005 119.978 49.1005" stroke="#212348" stroke-width="0.5" stroke-linecap="round" stroke-linejoin="round"/>
<path d="M105.424 32.9912L106.175 32.4477L106.578 33.3651L107.217 32.7692L107.757 33.6796L108.399 33.003L108.839 34.0373L109.568 33.3155L109.951 34.3389L110.629 33.6396L111.118 34.6096L111.885 33.8042L112.394 34.9211L112.917 33.966L113.463 35.0275L113.969 34.0834L114.575 34.9621L114.981 33.963L115.495 34.7462L115.847 33.7317L116.459 34.265L116.792 33.3089L117.423 33.7186L117.71 32.6587L118.238 33.1624L118.577 32.1753L119.058 32.5481L119.293 31.8066L119.831 32.2101" stroke="#212348" stroke-width="0.5" stroke-linecap="round" stroke-linejoin="round"/>
<path d="M105.587 49.1577L106.338 48.6142L106.697 49.5731L107.347 49.1004L107.767 50.0578L108.455 49.5832L108.881 50.4597L109.545 50.0481L109.917 50.9162L110.679 50.5357L111.118 51.5014L111.91 50.9942L112.369 51.9795L112.917 51.3568L113.493 52.2234L113.969 51.4743L114.538 52.2136L114.981 51.3539L115.661 51.7747L115.916 50.9065L116.531 51.2242L116.814 50.3598L117.407 50.6733L117.713 49.7066L118.368 49.9505L118.577 49.0706L119.13 49.3554L119.356 48.5013L119.978 48.8287" stroke="#212348" stroke-width="0.5" stroke-linecap="round" stroke-linejoin="round"/>
<path fill-rule="evenodd" clip-rule="evenodd" d="M153.188 11.6276L126.799 10.0704L95.1284 18.7534L121.571 22.3492" fill="#202446"/>
<path d="M153.188 11.6276L126.799 10.0704L95.1284 18.7534L121.571 22.3492" stroke="#202348" stroke-width="0.62112" stroke-linecap="round" stroke-linejoin="round"/>
<path fill-rule="evenodd" clip-rule="evenodd" d="M160.438 26.8664L160.832 38.4912L124.335 52.5807L124.21 23.7505L153.061 13.3382L160.438 26.8664Z" fill="#FEFEFE"/>
<path fill-rule="evenodd" clip-rule="evenodd" d="M149.202 16.9164C150.689 16.3709 152.235 15.6706 152.235 15.6706C154.169 18.7843 155.81 21.6978 158.584 26.0325C157.371 26.3491 151.197 28.4689 149.585 29.0632C149.421 25.3665 149.446 20.2588 149.202 16.9164ZM122.864 62.9991C123.957 62.0729 126.138 61.4071 127.252 60.9985L139.018 56.6643C145.318 55.9507 156.368 49.454 162.196 48.8917L173.45 44.3603C175.144 44.2634 175.474 43.6136 176.957 43.0691C176.957 43.0691 176.416 29.5291 175.936 26.0646C175.517 23.0515 173.012 21.3594 170.014 22.4418C165.732 23.9923 161.61 25.2104 161.61 25.2104C159.796 20.4622 155.338 15.3192 153.188 11.6276C145.446 12.6346 125.8 21.1086 121.571 22.3492C120.52 27.8256 122.722 57.0156 122.864 62.9991Z" fill="#202446"/>
<path d="M149.202 16.9164L149.095 16.6248C148.965 16.6725 148.882 16.8007 148.892 16.939L149.202 16.9164ZM152.235 15.6706L152.499 15.5068C152.417 15.3744 152.249 15.3234 152.107 15.3877L152.235 15.6706ZM158.584 26.0325L158.662 26.333C158.759 26.3079 158.837 26.2383 158.873 26.1457C158.909 26.0532 158.899 25.9489 158.846 25.8651L158.584 26.0325ZM149.585 29.0632L149.275 29.077C149.279 29.176 149.331 29.267 149.413 29.3219C149.496 29.3767 149.6 29.3889 149.693 29.3546L149.585 29.0632ZM122.864 62.9991L122.554 63.0065C122.556 63.1261 122.628 63.2334 122.737 63.2824C122.846 63.3314 122.974 63.3134 123.065 63.2361L122.864 62.9991ZM127.252 60.9985L127.359 61.2901L127.359 61.2899L127.252 60.9985ZM139.018 56.6643L138.983 56.3557C138.958 56.3585 138.934 56.3643 138.911 56.3729L139.018 56.6643ZM162.196 48.8917L162.226 49.2008C162.256 49.198 162.285 49.1909 162.312 49.1798L162.196 48.8917ZM173.45 44.3603L173.432 44.0503C173.398 44.0522 173.365 44.0596 173.334 44.0722L173.45 44.3603ZM176.957 43.0691L177.064 43.3606C177.191 43.3141 177.273 43.1913 177.267 43.0567L176.957 43.0691ZM175.936 26.0646L176.243 26.022L176.243 26.0219L175.936 26.0646ZM170.014 22.4418L169.908 22.1497L169.908 22.1498L170.014 22.4418ZM161.61 25.2104L161.319 25.3212C161.377 25.4727 161.542 25.5542 161.698 25.5082L161.61 25.2104ZM153.188 11.6276L153.457 11.4714C153.394 11.3633 153.272 11.3035 153.148 11.3197L153.188 11.6276ZM121.571 22.3492L121.484 22.0512C121.372 22.0839 121.288 22.1764 121.266 22.2907L121.571 22.3492ZM149.309 17.2079C150.059 16.9327 150.823 16.619 151.398 16.3748C151.686 16.2525 151.927 16.1474 152.096 16.0727C152.181 16.0354 152.247 16.0057 152.293 15.9853C152.316 15.9751 152.333 15.9672 152.345 15.9618C152.351 15.9591 152.356 15.9571 152.359 15.9557C152.36 15.955 152.361 15.9545 152.362 15.9541C152.363 15.9539 152.363 15.9538 152.363 15.9537C152.363 15.9536 152.363 15.9536 152.363 15.9536C152.363 15.9536 152.363 15.9535 152.363 15.9535C152.364 15.9535 152.364 15.9535 152.235 15.6706C152.107 15.3877 152.107 15.3877 152.107 15.3877C152.107 15.3877 152.107 15.3877 152.107 15.3877C152.107 15.3877 152.107 15.3878 152.107 15.3878C152.107 15.3879 152.107 15.388 152.106 15.3882C152.106 15.3885 152.105 15.389 152.103 15.3896C152.1 15.3909 152.096 15.3928 152.09 15.3954C152.079 15.4006 152.062 15.4083 152.039 15.4183C151.995 15.4383 151.929 15.4675 151.845 15.5044C151.678 15.5781 151.44 15.6821 151.155 15.8031C150.585 16.0453 149.832 16.3545 149.095 16.6248L149.309 17.2079ZM151.972 15.8344C153.894 18.931 155.55 21.8677 158.322 26.1999L158.846 25.8651C156.07 21.5279 154.443 18.6375 152.499 15.5068L151.972 15.8344ZM158.506 25.732C157.276 26.053 151.088 28.1781 149.478 28.7718L149.693 29.3546C151.306 28.7598 157.467 26.6452 158.662 26.333L158.506 25.732ZM149.895 29.0494C149.732 25.3865 149.756 20.2338 149.512 16.8938L148.892 16.939C149.136 20.2838 149.109 25.3466 149.275 29.077L149.895 29.0494ZM123.065 63.2361C123.571 62.8069 124.35 62.424 125.167 62.0925C125.983 61.7613 126.786 61.5002 127.359 61.2901L127.145 60.707C126.604 60.9055 125.76 61.1815 124.933 61.517C124.108 61.8521 123.25 62.2651 122.663 62.7622L123.065 63.2361ZM127.359 61.2899L139.125 56.9557L138.911 56.3729L127.144 60.7071L127.359 61.2899ZM139.053 56.9729C142.257 56.6099 146.643 54.7841 150.903 53.0079C153.045 52.1153 155.161 51.2315 157.106 50.5354C159.055 49.8381 160.809 49.3376 162.226 49.2008L162.166 48.5826C160.67 48.727 158.856 49.2494 156.897 49.9506C154.934 50.6531 152.802 51.5436 150.664 52.4346C146.368 54.2258 142.079 56.0051 138.983 56.3557L139.053 56.9729ZM162.312 49.1798L173.566 44.6484L173.334 44.0722L162.08 48.6036L162.312 49.1798ZM173.467 44.6704C174.363 44.6192 174.91 44.4188 175.423 44.1597C175.934 43.9009 176.345 43.6248 177.064 43.3606L176.85 42.7775C176.087 43.0579 175.59 43.379 175.142 43.6054C174.695 43.8316 174.231 44.0046 173.432 44.0503L173.467 44.6704ZM176.957 43.0691C177.267 43.0567 177.267 43.0566 177.267 43.0565C177.267 43.0564 177.267 43.0562 177.267 43.056C177.267 43.0556 177.267 43.055 177.267 43.0542C177.267 43.0525 177.267 43.05 177.267 43.0468C177.267 43.0402 177.266 43.0305 177.266 43.0176C177.265 42.9918 177.263 42.9535 177.261 42.9035C177.257 42.8034 177.251 42.6561 177.243 42.4675C177.227 42.0903 177.204 41.5477 177.175 40.8856C177.117 39.5617 177.034 37.7601 176.937 35.8501C176.741 32.0379 176.486 27.7708 176.243 26.022L175.628 26.1073C175.866 27.8229 176.121 32.058 176.316 35.8819C176.414 37.7899 176.496 39.5899 176.555 40.913C176.584 41.5745 176.607 42.1167 176.623 42.4935C176.63 42.6819 176.637 42.8289 176.641 42.9288C176.643 42.9788 176.644 43.017 176.645 43.0426C176.646 43.0555 176.646 43.0652 176.646 43.0717C176.647 43.075 176.647 43.0774 176.647 43.079C176.647 43.0798 176.647 43.0805 176.647 43.0809C176.647 43.0811 176.647 43.0812 176.647 43.0813C176.647 43.0814 176.647 43.0815 176.957 43.0691ZM176.243 26.0219C176.023 24.4391 175.25 23.1751 174.108 22.4547C172.963 21.7326 171.485 21.5804 169.908 22.1497L170.119 22.7339C171.54 22.2208 172.814 22.3733 173.776 22.98C174.741 23.5883 175.429 24.677 175.628 26.1074L176.243 26.0219ZM169.908 22.1498C167.772 22.9232 165.675 23.614 164.112 24.1116C163.33 24.3603 162.682 24.5607 162.23 24.6988C162.004 24.7679 161.826 24.8214 161.706 24.8576C161.646 24.8757 161.599 24.8894 161.568 24.8987C161.553 24.9033 161.541 24.9068 161.533 24.9091C161.529 24.9103 161.526 24.9111 161.524 24.9117C161.523 24.912 161.523 24.9122 161.522 24.9123C161.522 24.9124 161.522 24.9125 161.522 24.9125C161.522 24.9125 161.522 24.9125 161.522 24.9125C161.522 24.9125 161.522 24.9125 161.61 25.2104C161.698 25.5082 161.698 25.5082 161.698 25.5082C161.698 25.5082 161.698 25.5082 161.698 25.5081C161.698 25.5081 161.698 25.508 161.698 25.508C161.699 25.5078 161.7 25.5076 161.701 25.5073C161.703 25.5067 161.706 25.5058 161.71 25.5046C161.718 25.5022 161.73 25.4987 161.746 25.494C161.777 25.4846 161.824 25.4707 161.884 25.4525C162.006 25.416 162.184 25.3622 162.411 25.2929C162.866 25.1541 163.516 24.953 164.3 24.7035C165.868 24.2044 167.974 23.5109 170.119 22.7338L169.908 22.1498ZM161.9 25.0996C160.979 22.6881 159.392 20.1891 157.781 17.8468C156.159 15.4893 154.524 13.3038 153.457 11.4714L152.92 11.7839C154.002 13.643 155.671 15.8749 157.269 18.1988C158.878 20.538 160.427 22.9845 161.319 25.3212L161.9 25.0996ZM153.148 11.3197C149.234 11.8287 142.351 14.2143 135.953 16.6099C129.524 19.0175 123.584 21.435 121.484 22.0512L121.659 22.6472C123.787 22.0228 129.785 19.5829 136.171 17.1916C142.589 14.7884 149.4 12.4335 153.228 11.9356L153.148 11.3197ZM121.266 22.2907C120.996 23.6975 120.939 26.5831 120.999 30.1749C121.06 33.7803 121.242 38.1335 121.46 42.4995C121.898 51.2418 122.483 60.0194 122.554 63.0065L123.175 62.9917C123.103 59.9954 122.517 51.1862 122.08 42.4685C121.862 38.1045 121.681 33.7594 121.62 30.1644C121.559 26.5558 121.621 23.739 121.876 22.4077L121.266 22.2907Z" fill="#202348"/>
<path fill-rule="evenodd" clip-rule="evenodd" d="M138.792 57.3348C138.603 61.9037 135.944 66.1005 132.855 66.7086C129.765 67.3166 127.414 64.1057 127.604 59.5369C127.794 54.9679 130.453 50.7711 133.542 50.1631C136.632 49.5549 138.982 52.766 138.792 57.3348Z" fill="#FEFEFE"/>
<path fill-rule="evenodd" clip-rule="evenodd" d="M138.792 57.3348C138.603 61.9037 135.944 66.1005 132.855 66.7086C129.765 67.3166 127.414 64.1057 127.604 59.5369C127.794 54.9679 130.453 50.7711 133.542 50.1631C136.632 49.5549 138.982 52.766 138.792 57.3348Z" stroke="#202348" stroke-width="0.87" stroke-linecap="round" stroke-linejoin="round"/>
<path fill-rule="evenodd" clip-rule="evenodd" d="M173.359 45.6692C173.169 50.238 170.511 54.4348 167.421 55.0428C164.332 55.651 161.981 52.4401 162.171 47.8712C162.361 43.3022 165.019 39.1055 168.109 38.4973C171.198 37.8893 173.549 41.1003 173.359 45.6692Z" fill="#FEFEFE"/>
<path fill-rule="evenodd" clip-rule="evenodd" d="M173.359 45.6692C173.169 50.238 170.511 54.4348 167.421 55.0428C164.332 55.651 161.981 52.4401 162.171 47.8712C162.361 43.3022 165.019 39.1055 168.109 38.4973C171.198 37.8893 173.549 41.1003 173.359 45.6692Z" stroke="#202348" stroke-width="0.87" stroke-linecap="round" stroke-linejoin="round"/>
<path fill-rule="evenodd" clip-rule="evenodd" d="M169.483 46.5822C169.43 47.8594 168.662 49.0377 167.769 49.2134C166.875 49.3893 166.194 48.4964 166.247 47.2191C166.3 45.9404 167.067 44.7623 167.961 44.5863C168.854 44.4105 169.537 45.3033 169.483 46.5822Z" stroke="#202348" stroke-width="0.87" stroke-linecap="round" stroke-linejoin="round"/>
<path fill-rule="evenodd" clip-rule="evenodd" d="M134.881 58.0114C134.828 59.2887 134.062 60.4664 133.167 60.6427C132.274 60.8182 131.592 59.9254 131.645 58.6482C131.699 57.3695 132.467 56.1912 133.359 56.0156C134.254 55.8394 134.934 56.7326 134.881 58.0114Z" stroke="#202348" stroke-width="0.87" stroke-linecap="round" stroke-linejoin="round"/>
<path fill-rule="evenodd" clip-rule="evenodd" d="M143.466 14.2461L145.566 55.1465L148.431 53.6957L146.172 13.3408L143.466 14.2461Z" fill="#F8B100"/>
<path fill-rule="evenodd" clip-rule="evenodd" d="M123.913 20.916L126.013 61.8164L127.274 61.3945C126.923 58.9278 128.379 54.8259 128.563 54.7283L126.619 20.0108L123.913 20.916Z" fill="#F8B100"/>
<path d="M125.991 20.8017L124.491 23.6058L126.076 25.186L124.861 28.1508L126.571 29.2417L125.142 32.8533L127.056 33.8761L125.225 37.1744L127.191 38.3715L125.532 41.1758L127.307 42.2339L125.73 46.215L127.663 46.9755L125.956 50.6163L127.821 52.2308L126.21 54.4325L127.709 55.594L126.29 58.6268L127.249 59.8495" stroke="#202446" stroke-width="0.5" stroke-linecap="round" stroke-linejoin="round"/>
<path d="M145.607 14.1972L144.355 16.9612L145.899 18.7469L144.19 21.7917L146.239 23.835L144.485 26.9588L146.61 28.9552L144.955 32.7917L146.774 34.4004L145.336 38.2071L147.132 40.1218L145.462 43.4517L147.276 44.9065L145.773 48.6347L147.554 50.0003L146.026 52.8991L147.908 53.5154" stroke="#202446" stroke-width="0.5" stroke-linecap="round" stroke-linejoin="round"/>
<path d="M138.439 35.0562C138.453 35.0106 138.468 34.9592 138.482 34.9041C138.604 34.4662 138.751 33.7694 138.707 33.4115C138.618 32.7157 138.397 32.13 138.23 31.4984C138.053 30.8336 137.893 30.1554 137.724 29.4859C137.627 29.1035 137.519 28.7251 137.482 28.6562" stroke="#FEFEFE" stroke-width="0.5" stroke-linecap="round"/>
<path d="M142.018 30.2915C142.072 30.7907 142.079 30.7386 142.053 31.0052C142.034 31.1921 141.865 31.4235 141.76 31.5488C141.317 32.0749 140.877 32.6035 140.405 33.0763C139.804 33.6773 139.442 33.9935 139.042 34.4027C138.953 34.4948 138.811 34.6117 138.522 34.9151" stroke="#FEFEFE" stroke-width="0.5" stroke-linecap="round"/>
<path d="M137.657 23.2947C138.185 23.0729 138.652 22.9676 139.188 22.8308C139.394 22.7765 139.662 22.7578 139.874 22.7578C139.933 22.7579 139.993 22.752 140.059 22.7862C140.174 22.6059 140.249 22.3985 140.36 22.225C140.493 22.0195 140.634 21.9305 140.801 21.9567C140.968 21.9805 141.126 22.0414 141.246 22.1876C141.358 22.3241 141.375 22.5434 141.386 22.7506C141.4 23.061 141.347 23.3707 141.193 23.6608C141.078 23.8761 140.975 24.1053 140.849 24.3098C140.799 24.3924 140.801 24.4596 140.818 24.5028C141.038 25.1077 141.557 26.9831 142.018 30.2916" stroke="#FEFEFE" stroke-width="0.5" stroke-linecap="round"/>
<path d="M130.301 27.7923C130.11 27.6116 129.878 27.485 129.721 27.2406C129.568 26.9983 129.499 26.754 129.649 26.3811C129.816 25.9611 129.986 25.5747 130.323 25.3523C130.495 25.239 130.614 25.226 130.728 25.3652C130.866 25.5308 130.995 25.624 131.236 25.5289C131.562 25.4006 131.892 25.2965 132.219 25.1877C132.796 24.9938 133.373 24.8089 133.949 24.6078C134.546 24.4007 137.058 23.4879 137.657 23.2946" stroke="#FEFEFE" stroke-width="0.5" stroke-linecap="round"/>
<path d="M135.959 37.4582C136.081 37.4 136.584 37.2425 136.704 37.1795C136.753 37.1541 136.808 37.1353 136.861 37.1175C137.128 37.024 137.389 36.8994 137.65 36.7401C137.782 36.66 137.878 36.5417 137.954 36.3797C138.15 35.9562 138.3 35.5078 138.439 35.0562" stroke="#FEFEFE" stroke-width="0.5" stroke-linecap="round"/>
<path d="M137.482 28.6562C137.385 28.4976 137.297 28.3156 137.15 28.2383C136.967 28.1426 136.775 28.2047 136.582 28.2307C136.063 28.3006 135.554 28.5647 135.044 28.7873C134.863 28.8653 134.739 29.0435 134.629 29.2863C134.355 29.8926 134.302 30.5307 134.212 31.1628C134.126 31.7599 134.044 32.3556 133.961 32.9517C133.877 33.5496 133.773 34.1465 133.719 34.7408C133.691 35.0651 133.722 35.3896 133.835 35.6649C133.979 36.0225 134.151 36.4063 134.353 36.7129C134.403 36.7919 134.456 36.8656 134.511 36.9334C134.64 37.0763 134.889 37.3287 135.027 37.3968C135.072 37.437 135.163 37.4546 135.234 37.4777C135.472 37.5583 135.709 37.5711 135.959 37.4582" stroke="#FEFEFE" stroke-width="0.5" stroke-linecap="round"/>
<path d="M130.024 30.2533C129.966 30.6016 129.712 33.7368 129.682 34.08C129.646 34.4917 129.621 34.9029 129.64 35.3053C129.657 35.7189 129.767 35.9755 130.053 36.0988C130.65 36.3559 131.45 36.5835 131.856 36.6347C132.646 36.7304 133.881 36.8005 134.316 36.7637" stroke="#FEFEFE" stroke-width="0.5" stroke-linecap="round"/>
<path d="M130.301 27.7924C130.25 28.1854 130.189 28.5806 130.152 28.9725C130.113 29.3999 130.059 29.8273 130.024 30.2533" stroke="#FEFEFE" stroke-width="0.5" stroke-linecap="round"/>
<path fill-rule="evenodd" clip-rule="evenodd" d="M136.36 36.4633C136.8 36.2997 136.792 36.3797 136.924 36.1895C137.197 35.7962 137.436 35.2469 137.654 34.8208C137.736 34.6601 137.908 34.3374 137.884 34.1171C137.84 33.7132 137.875 33.4984 137.829 33.0825C137.797 32.7986 137.759 32.7669 137.538 32.8123C137.13 32.8942 136.72 32.9767 136.311 33.1011C135.715 33.2802 136.034 33.1414 135.376 33.4427C135.209 33.5193 135.039 33.5496 134.87 33.6657C134.739 33.7565 134.692 33.8676 134.681 34.033C134.649 34.4963 134.639 34.9532 134.666 35.4022C134.676 35.5579 134.745 35.6372 134.828 35.6943C135.187 35.939 135.55 36.1768 135.911 36.4153C135.974 36.4562 136.05 36.5785 136.36 36.4633Z" stroke="#FEFEFE" stroke-width="0.5" stroke-linecap="round"/>
<path fill-rule="evenodd" clip-rule="evenodd" d="M138.204 27.771C138.325 27.8269 138.354 27.9961 138.36 28.1719C138.367 28.3508 138.301 28.5111 138.159 28.5932C137.991 28.6884 137.86 28.6472 137.751 28.4529C137.654 28.6687 137.571 28.8484 137.639 29.0945L137.539 28.7334C137.573 28.6494 137.705 28.3965 137.706 28.3193C137.714 27.9234 137.96 27.6577 138.204 27.771Z" fill="#FEFEFE"/>
<path fill-rule="evenodd" clip-rule="evenodd" d="M134.493 29.575L134.457 29.6726C134.428 29.6432 134.318 29.5703 134.259 29.5738C134.263 29.7411 134.169 29.8787 134.083 29.9493C133.961 30.0477 133.843 30.1026 133.725 30.0511C133.615 30.0002 133.59 29.8241 133.597 29.6655C133.626 29.0932 134.235 29.0263 134.254 29.3885C134.261 29.5309 134.353 29.46 134.493 29.575Z" fill="#FEFEFE"/>
<path d="M95.7807 57.6823L79.6142 55.9974L79.0704 19.0824L95.1285 18.7533C95.1285 18.7533 95.0966 31.5197 95.2336 42.4945L95.4717 53.3639C95.5539 55.4843 95.6555 57.0312 95.7807 57.6823C95.9256 58.4358 105.22 59.8495 105.22 59.8495L122.864 62.9992" stroke="#202348" stroke-width="0.62112" stroke-linecap="round" stroke-linejoin="round"/>
<path d="M95.7806 57.6823L99.2028 55.9934" stroke="#202348" stroke-width="0.62112" stroke-linecap="round" stroke-linejoin="round"/>
<path fill-rule="evenodd" clip-rule="evenodd" d="M120.651 22.2827L128.563 27.5863L129.565 69.9678L122.864 62.9991L120.651 22.2827Z" fill="#FEFEFE"/>
<path fill-rule="evenodd" clip-rule="evenodd" d="M120.651 22.2827L128.563 27.5863L129.565 69.9678L122.864 62.9991L120.651 22.2827Z" stroke="#202348" stroke-width="0.62112" stroke-linecap="round" stroke-linejoin="round"/>
<path fill-rule="evenodd" clip-rule="evenodd" d="M104.714 27.501L99.7364 29.2002C99.7364 29.2002 98.1727 29.3186 98.2637 30.043C98.3545 30.7673 98.5306 37.476 98.5306 37.476L98.5957 51.7959L98.5927 57.1061C98.5927 57.1061 100.104 57.6087 101.823 58.6238C103.542 59.6388 106.121 60.6323 106.766 60.7111C107.41 60.7898 107.602 60.7589 107.552 60.4722C107.503 60.1853 107.509 52.791 107.509 52.791L107.508 39.2709C107.508 39.2709 107.512 31.6189 107.807 31.3384C108.102 31.0579 112.781 28.2949 112.781 28.2949L104.714 27.501Z" fill="#B17F48"/>
<path fill-rule="evenodd" clip-rule="evenodd" d="M112.781 28.2949C112.781 28.2949 110.826 29.4865 109.94 29.9374C109.054 30.3883 107.725 30.9867 107.691 31.6107C107.658 32.2345 107.509 38.9587 107.509 38.9587L107.498 56.2962V60.3541C107.498 60.3541 107.479 60.7982 107.963 60.4938C108.447 60.1895 112.715 57.02 112.715 57.02L113.59 56.1683C113.59 56.1683 113.265 54.4273 113.249 53.5733C113.233 52.7193 113.085 48.4014 113.085 48.4014L112.942 38.8027L112.883 29.1095C112.883 29.1095 112.849 28.5042 112.781 28.2949Z" fill="#946C3E"/>
<path fill-rule="evenodd" clip-rule="evenodd" d="M98.5137 35.0679V36.5059C98.5137 36.5059 102.238 37.6377 104.019 38.0098C105.8 38.382 106.792 38.5675 107.511 38.5344C108.23 38.5013 111.05 37.143 112.942 35.6468V34.209C112.942 34.209 110.958 35.7588 109.492 36.3735C108.026 36.9884 108.044 37.408 105.936 36.9674C103.829 36.5271 98.5137 35.0679 98.5137 35.0679Z" fill="#F9B200"/>
<path fill-rule="evenodd" clip-rule="evenodd" d="M98.6941 51.2605L104.063 53.5514C104.063 53.5514 106.125 54.5788 107.51 54.4218C108.894 54.2649 113.144 50.888 113.144 50.888L113.183 52.3502C113.183 52.3502 109.667 55.2623 108.475 55.5638C107.283 55.8653 106.739 55.8553 105.919 55.591C105.099 55.3267 98.6941 52.5484 98.6941 52.5484V51.2605Z" fill="#F9B200"/>
<path d="M113.325 53.9374C113.137 52.7188 113.178 51.4875 113.122 50.2609C112.81 43.36 112.98 36.4554 112.939 29.5523C112.939 29.5523 112.907 28.1222 112.647 28.1479L104.618 27.501C103.014 28.1263 100.316 29.0009 98.6897 29.5511C98.3556 29.665 98.2227 29.5979 98.2637 29.9133C98.5254 31.9703 98.4901 34.3667 98.5351 36.4237C98.687 43.3234 98.5928 50.2277 98.5928 57.1061C98.8193 57.1631 98.9583 57.1743 99.0759 57.2301C101.455 58.3521 103.69 59.7718 106.24 60.5468C106.994 60.7768 107.507 60.8106 108.205 60.3498C110.1 59.0992 111.901 57.7416 113.616 56.2598C113.37 55.4449 113.476 54.6755 113.325 53.9374" stroke="#212348" stroke-width="0.5" stroke-linecap="round" stroke-linejoin="round"/>
<path d="M107.51 55.8591C107.511 57.0893 107.511 58.3195 107.512 59.5496C107.513 59.9056 107.443 60.2712 107.607 60.6141" stroke="#212348" stroke-width="0.5" stroke-linecap="round" stroke-linejoin="round"/>
<path d="M107.511 38.5344C107.509 40.4189 107.509 42.9568 107.509 44.8417C107.509 48.0348 107.509 51.1756 107.51 54.3692" stroke="#212348" stroke-width="0.5" stroke-linecap="round" stroke-linejoin="round"/>
<path d="M98.2637 29.9133C98.8773 30.042 101.205 30.6161 101.794 30.8199C101.794 30.8199 102.782 31.0511 103.918 31.177C105.054 31.3029 106.545 31.5193 107.681 31.4782C107.829 33.14 107.527 34.7767 107.515 36.4225C107.514 36.6473 107.512 36.8719 107.511 37.0967" stroke="#212348" stroke-width="0.5" stroke-linecap="round" stroke-linejoin="round"/>
<path d="M112.647 28.2949C111.649 29.1114 110.495 29.6628 109.351 30.2294C108.783 30.5113 108.1 30.9828 107.681 31.4782" stroke="#212348" stroke-width="0.5" stroke-linecap="round" stroke-linejoin="round"/>
<path d="M98.5137 35.0679C98.5137 35.0679 105.737 37.2915 107.511 37.0965C109.285 36.9016 112.942 34.209 112.942 34.209" stroke="#212348" stroke-width="0.5" stroke-linecap="round" stroke-linejoin="round"/>
<path d="M98.5137 36.5059C98.5137 36.5059 105.737 38.7293 107.511 38.5344C109.285 38.3394 112.942 35.6468 112.942 35.6468" stroke="#212348" stroke-width="0.5" stroke-linecap="round" stroke-linejoin="round"/>
<path d="M104.025 43.0106C104.039 43.0387 104.074 43.1802 104.103 43.3214C104.155 43.5684 104.202 43.8171 104.257 44.0638C104.309 44.2972 104.387 44.5246 104.402 44.7689C104.41 44.9102 104.332 45.0936 104.261 45.215L104.257 45.221L104.211 45.2939C104.131 45.4286 104.057 45.5359 103.952 45.6486C103.913 45.6918 103.864 45.7167 103.802 45.7245C103.678 45.7406 103.556 45.7446 103.432 45.7375C103.408 45.7359 103.382 45.7341 103.359 45.7356C103.302 45.7393 103.07 45.7196 103.012 45.7215" stroke="#212348" stroke-width="0.5" stroke-linecap="round"/>
<path d="M106.011 44.2054C106.017 44.3793 106.022 44.3629 106 44.4479C105.984 44.5074 105.9 44.5604 105.849 44.5869C105.629 44.6984 105.411 44.8113 105.18 44.9002C104.887 45.0147 104.712 45.068 104.516 45.1468L104.272 45.2303" stroke="#212348" stroke-width="0.5" stroke-linecap="round" stroke-linejoin="bevel"/>
<path d="M104.303 41.2508C104.549 41.2533 104.763 41.2852 105.01 41.316C105.105 41.328 105.227 41.3602 105.322 41.3907C105.35 41.3992 105.377 41.4059 105.405 41.4267C105.464 41.3831 105.505 41.3248 105.561 41.2831C105.629 41.2338 105.696 41.2243 105.77 41.257C105.845 41.289 105.914 41.3319 105.963 41.3978C106.008 41.4592 106.008 41.5346 106.005 41.6052C105.999 41.7104 105.964 41.8059 105.884 41.8805C105.824 41.9356 105.769 41.9964 105.705 42.0465C105.68 42.0674 105.678 42.0901 105.684 42.1068C105.761 42.3396 105.926 43.0383 106.011 44.2054" stroke="#212348" stroke-width="0.5" stroke-linecap="round"/>
<path d="M100.817 41.6931C100.739 41.6057 100.637 41.5295 100.576 41.4269C100.516 41.3236 100.494 41.2325 100.575 41.1305C100.666 41.0141 100.757 40.91 100.918 40.8842C100.999 40.8712 101.054 40.8839 101.1 40.9467C101.156 41.0215 101.211 41.0711 101.323 41.0741C101.475 41.078 101.627 41.0907 101.779 41.1015C102.047 41.1196 102.314 41.1409 102.58 41.1564C102.858 41.1732 104.025 41.2297 104.303 41.2508" stroke="#212348" stroke-width="0.5" stroke-linecap="round"/>
<path d="M104.025 43.0106C103.987 42.9439 103.954 42.8701 103.89 42.8238C103.812 42.7658 103.723 42.759 103.635 42.7398C103.398 42.6887 103.159 42.7036 102.92 42.7045C102.836 42.7046 102.773 42.7454 102.715 42.8111C102.569 42.9736 102.522 43.1784 102.457 43.3757C102.396 43.5621 102.337 43.7486 102.277 43.9351C102.218 44.1221 102.148 44.3057 102.102 44.4957C102.078 44.5998 102.079 44.712 102.12 44.8199C102.172 44.9596 102.236 45.1128 102.315 45.2436C102.335 45.2772 102.356 45.3093 102.378 45.3391C102.431 45.4058 102.535 45.525 102.594 45.5675C102.613 45.5866 102.653 45.6062 102.685 45.624C102.789 45.685 102.895 45.7232 103.012 45.7215" stroke="#212348" stroke-width="0.5"/>
<path d="M100.601 42.4724C100.562 42.5799 100.332 43.587 100.306 43.6969C100.274 43.8287 100.248 43.962 100.241 44.0985C100.234 44.2387 100.274 44.3399 100.398 44.4212C100.658 44.5931 101.011 44.7838 101.192 44.859C101.545 45.0041 102.098 45.2044 102.297 45.2545" stroke="#212348" stroke-width="0.5" stroke-linecap="round"/>
<path d="M100.817 41.6931C100.78 41.8167 100.737 41.9389 100.707 42.0646C100.673 42.2011 100.633 42.3356 100.601 42.4724" stroke="#212348" stroke-width="0.5" stroke-linecap="round"/>
<path fill-rule="evenodd" clip-rule="evenodd" d="M103.229 45.4466C103.435 45.4565 103.428 45.4821 103.495 45.437C103.633 45.3459 103.761 45.1974 103.875 45.0868C103.918 45.0452 104.007 44.9624 104.005 44.8855C104 44.7449 104.023 44.6777 104.018 44.5333C104.014 44.4344 103.998 44.4183 103.897 44.4017C103.709 44.3706 103.521 44.3391 103.332 44.3218C103.057 44.2961 103.207 44.2957 102.898 44.3015C102.82 44.303 102.742 44.2886 102.661 44.303C102.599 44.3145 102.573 44.3447 102.562 44.3982C102.531 44.5478 102.51 44.6979 102.505 44.8518C102.504 44.9052 102.532 44.9412 102.568 44.9722C102.72 45.1051 102.875 45.2363 103.029 45.3674C103.056 45.3901 103.086 45.4417 103.229 45.4466Z" stroke="#212348" stroke-width="0.5" stroke-linecap="round"/>
<path fill-rule="evenodd" clip-rule="evenodd" d="M104.384 42.8196C104.436 42.8557 104.443 42.9163 104.439 42.9757C104.436 43.0358 104.4 43.0804 104.333 43.0873C104.254 43.0951 104.196 43.0624 104.154 42.982C104.103 43.04 104.058 43.0879 104.08 43.1798L104.048 43.045C104.066 43.0219 104.136 42.9566 104.138 42.9309C104.157 42.8001 104.278 42.7474 104.384 42.8196Z" fill="#212348"/>
<path fill-rule="evenodd" clip-rule="evenodd" d="M102.644 42.888L102.624 42.9155C102.612 42.9014 102.565 42.8612 102.538 42.854C102.534 42.9104 102.486 42.9428 102.445 42.954C102.386 42.9693 102.33 42.9701 102.279 42.9363C102.231 42.9037 102.226 42.8413 102.235 42.7895C102.27 42.6027 102.547 42.6681 102.543 42.7915C102.541 42.84 102.585 42.8295 102.644 42.888Z" fill="#212348"/>
<path d="M98.5958 51.2219C98.5958 51.2219 105.639 54.5776 107.413 54.3825C109.187 54.1875 113.046 50.8496 113.046 50.8496" stroke="#212348" stroke-width="0.5" stroke-linecap="round" stroke-linejoin="round"/>
<path d="M98.5958 52.5098C98.5958 52.5098 105.639 56.0153 107.413 55.8204C109.187 55.6254 113.085 52.3117 113.085 52.3117" stroke="#212348" stroke-width="0.5" stroke-linecap="round" stroke-linejoin="round"/>
<path d="M98.5306 36.2024L99.2817 35.6588L99.6855 36.5761L100.324 35.9803L100.864 36.8908L101.506 36.2142L101.946 37.2484L102.675 36.5266L103.058 37.55L103.736 36.8508L104.225 37.8207L104.992 37.0153L105.501 38.1323L106.024 37.1771L106.57 38.2385L107.076 37.2946L107.682 38.1733L108.088 37.1742L108.602 37.9572L108.954 36.9429L109.566 37.476L109.899 36.5201L110.53 36.9298L110.817 35.8698L111.345 36.3736L111.684 35.3864L112.165 35.7593L112.4 35.0178L112.938 35.4212" stroke="#212348" stroke-width="0.5" stroke-linecap="round" stroke-linejoin="round"/>
<path d="M98.6941 52.3687L99.4451 51.8253L99.8044 52.7843L100.454 52.3116L100.874 53.269L101.562 52.7943L101.988 53.6709L102.652 53.2592L103.024 54.1274L103.786 53.747L104.225 54.7126L105.017 54.2054L105.476 55.1905L106.024 54.5679L106.6 55.4345L107.076 54.6855L107.645 55.4248L108.088 54.5652L108.769 54.9858L109.023 54.1176L109.638 54.4355L109.921 53.5709L110.514 53.8844L110.82 52.9177L111.475 53.1616L111.684 52.2818L112.237 52.5666L112.463 51.7123L113.085 52.0399" stroke="#212348" stroke-width="0.5" stroke-linecap="round" stroke-linejoin="round"/>
</svg>
