<svg width="110" height="14" viewBox="0 0 110 14" fill="none" xmlns="http://www.w3.org/2000/svg">
<path d="M14.8481 13.4579L8.14715 0.766936L7.26285 1.23386L13.9639 13.9249L14.8481 13.4579ZM7.26285 1.23386L13.9639 13.9249L14.8481 13.4579L8.14715 0.766936L7.26285 1.23386ZM1.44209 13.925L8.14709 1.23397L7.26291 0.766827L0.557908 13.4578L1.44209 13.925ZM7.26291 0.766827L0.557908 13.4578L1.44209 13.925L8.14709 1.23397L7.26291 0.766827ZM14.8481 13.9249L21.5521 1.23394L20.6679 0.766855L13.9639 13.4579L14.8481 13.9249ZM20.6679 0.766855L13.9639 13.4579L14.8481 13.9249L21.5521 1.23394L20.6679 0.766855ZM28.2561 13.4579L21.5521 0.766855L20.6679 1.23394L27.3719 13.9249L28.2561 13.4579ZM20.6679 1.23394L27.3719 13.9249L28.2561 13.4579L21.5521 0.766855L20.6679 1.23394ZM41.6631 13.4579L34.9601 0.766882L34.0759 1.23391L40.7789 13.9249L41.6631 13.4579ZM34.0759 1.23391L40.7789 13.9249L41.6631 13.4579L34.9601 0.766882L34.0759 1.23391ZM28.2561 13.9249L34.9601 1.23394L34.0759 0.766855L27.3719 13.4579L28.2561 13.9249ZM34.0759 0.766855L27.3719 13.4579L28.2561 13.9249L34.9601 1.23394L34.0759 0.766855ZM41.6631 13.9249L48.3671 1.23394L47.4829 0.766855L40.7789 13.4579L41.6631 13.9249ZM47.4829 0.766855L40.7789 13.4579L41.6631 13.9249L48.3671 1.23394L47.4829 0.766855ZM55.0691 13.4579L48.3671 0.766909L47.4829 1.23388L54.1849 13.9249L55.0691 13.4579ZM47.4829 1.23388L54.1849 13.9249L55.0691 13.4579L48.3671 0.766909L47.4829 1.23388ZM68.4791 13.4579L61.7751 0.766855L60.8909 1.23394L67.5949 13.9249L68.4791 13.4579ZM60.8909 1.23394L67.5949 13.9249L68.4791 13.4579L61.7751 0.766855L60.8909 1.23394ZM55.0691 13.925L61.7751 1.23399L60.8909 0.7668L54.1849 13.4578L55.0691 13.925ZM60.8909 0.7668L54.1849 13.4578L55.0691 13.925L61.7751 1.23399L60.8909 0.7668ZM68.4792 13.9248L75.1792 1.23383L74.2948 0.766964L67.5948 13.458L68.4792 13.9248ZM74.2948 0.766964L67.5948 13.458L68.4792 13.9248L75.1792 1.23383L74.2948 0.766964ZM81.8851 13.4578L75.1791 0.7668L74.2949 1.23399L81.0009 13.925L81.8851 13.4578ZM74.2949 1.23399L81.0009 13.925L81.8851 13.4578L75.1791 0.7668L74.2949 1.23399ZM95.2911 13.4578L88.5851 0.7668L87.7009 1.23399L94.4069 13.925L95.2911 13.4578ZM87.7009 1.23399L94.4069 13.925L95.2911 13.4578L88.5851 0.7668L87.7009 1.23399ZM81.8852 13.9248L88.5852 1.23383L87.7008 0.766964L81.0008 13.458L81.8852 13.9248ZM87.7008 0.766964L81.0008 13.458L81.8852 13.9248L88.5852 1.23383L87.7008 0.766964ZM95.2911 13.9249L101.995 1.23394L101.111 0.766855L94.4069 13.4579L95.2911 13.9249ZM101.111 0.766855L94.4069 13.4579L95.2911 13.9249L101.995 1.23394L101.111 0.766855ZM108.698 13.4579L101.995 0.766882L101.111 1.23391L107.814 13.9249L108.698 13.4579ZM101.111 1.23391L107.814 13.9249L108.698 13.4579L101.995 0.766882L101.111 1.23391Z" fill="#F8AE00"/>
</svg>
